M48
METRIC,LZ,000.000
;FILE_FORMAT=3:3
;TYPE=PLATED
;Layer: PTH_Through
;EasyEDA v6.5.34, 2023-08-13 08:00:09
;3ef975804e8146baa9bbefacfd0b45dc,794d3a8cdbfe417db23b3599569a6dff,10
;Gerber Generator version 0.2
;Holesize 1 = 0.310 mm
T01C0.310
;Holesize 2 = 0.889 mm
T02C0.889
;Holesize 3 = 0.915 mm
T03C0.915
;Holesize 4 = 1.000 mm
T04C1.000
%
G05
G90
T01
X049485Y-005207
X052451Y-005080
X003683Y-031877
X006985Y-006477
X028575Y-002921
X045532Y-034224
T02
X018669Y-026670
X021209Y-026670
X023749Y-026670
X026289Y-026670
X053721Y-036830
X051181Y-036830
X008890Y-036830
X006350Y-036830
X008890Y-003175
X006350Y-003175
X053721Y-003175
X051181Y-003175
T03
X050927Y-011430
X048387Y-011430
X045847Y-011430
X043307Y-011430
X040767Y-011430
X038227Y-011430
X035687Y-011430
X033147Y-011430
X030607Y-011430
X028067Y-011430
X025527Y-011430
X022987Y-011430
X020447Y-011430
X017907Y-011430
X015367Y-011430
X012827Y-011430
X010287Y-011430
X007747Y-011430
X005207Y-011430
X002667Y-011430
X050927Y-029210
X048387Y-029210
X045847Y-029210
X043307Y-029210
X040767Y-029210
X038227Y-029210
X035687Y-029210
X033147Y-029210
X030607Y-029210
X028067Y-029210
X025527Y-029210
X022987Y-029210
X020447Y-029210
X017907Y-029210
X015367Y-029210
X012827Y-029210
X010287Y-029210
X007747Y-029210
X005207Y-029210
X002667Y-029210
X032497Y-017196
X032497Y-014656
X032497Y-019736
T04
X056769Y-019050
X056769Y-021590
M30
