G04 Layer: TopLayer*
G04 EasyEDA v6.5.34, 2023-08-13 08:00:09*
G04 3ef975804e8146baa9bbefacfd0b45dc,794d3a8cdbfe417db23b3599569a6dff,10*
G04 Gerber Generator version 0.2*
G04 Scale: 100 percent, Rotated: No, Reflected: No *
G04 Dimensions in millimeters *
G04 leading zeros omitted , absolute positions ,4 integer and 5 decimal *
%FSLAX45Y45*%
%MOMM*%

%AMMACRO1*21,1,$1,$2,0,0,$3*%
%ADD10C,0.8000*%
%ADD11MACRO1,0.84X0.91X90.0000*%
%ADD12R,0.9100X0.8400*%
%ADD13R,1.2500X1.0000*%
%ADD14R,1.2500X0.7000*%
%ADD15R,0.7000X1.2500*%
%ADD16MACRO1,0.864X0.8065X90.0000*%
%ADD17MACRO1,0.864X0.8065X0.0000*%
%ADD18R,0.8640X0.8065*%
%ADD19MACRO1,0.84X0.91X0.0000*%
%ADD20C,1.5240*%
%ADD21R,1.5240X1.5240*%
%ADD22C,1.7000*%
%ADD23R,1.5748X1.5748*%
%ADD24C,1.5748*%
%ADD25C,0.6200*%

%LPD*%
D10*
X4406900Y-1320800D02*
G01*
X5245100Y-2159000D01*
X5676900Y-2159000D01*
X774700Y-1143000D02*
G01*
X952500Y-1320800D01*
X1917700Y-1320800D01*
X2044700Y-1193800D01*
X2044700Y-1143000D01*
X1917700Y-1320800D02*
G01*
X3136900Y-1320800D01*
X3314700Y-1143000D01*
X3136900Y-1320800D02*
G01*
X4406900Y-1320800D01*
X4584700Y-1143000D01*
X4700600Y-3422395D02*
G01*
X4553204Y-3422395D01*
X4553204Y-3422395D02*
G01*
X4553204Y-3422395D01*
X4507636Y-3467963D01*
X4507636Y-3683000D01*
X1676400Y-585063D02*
G01*
X1728063Y-585063D01*
X2044700Y-901700D01*
X2413761Y-749300D02*
G01*
X2197100Y-749300D01*
X2044700Y-901700D01*
X2044700Y-1143000D01*
X4330700Y-2921000D02*
G01*
X4330700Y-3073907D01*
X4489195Y-3232404D01*
X4700524Y-3232404D02*
G01*
X4489195Y-3232404D01*
X4356861Y-3366262D01*
X4356861Y-3683000D01*
X2628900Y-2667000D02*
G01*
X2222500Y-2260600D01*
X1638300Y-2260600D01*
X1524000Y-2374900D01*
X1524000Y-2908300D01*
X1536700Y-2921000D01*
X2374900Y-2667000D02*
G01*
X2120900Y-2413000D01*
X1752600Y-2413000D01*
X1676400Y-2489200D01*
X1676400Y-2806700D01*
X1790700Y-2921000D01*
X4900599Y-3327400D02*
G01*
X5118100Y-3544900D01*
X5118100Y-3683000D01*
X4547463Y-304800D02*
G01*
X4547463Y-386867D01*
X4814900Y-654304D01*
X5014899Y-749300D02*
G01*
X5118100Y-646099D01*
X5118100Y-317500D01*
X4814900Y-654304D02*
G01*
X4948504Y-520700D01*
X159004Y-3392500D02*
G01*
X163499Y-3392500D01*
X368300Y-3187700D01*
X355600Y-3200400D01*
X520700Y-2921000D02*
G01*
X520700Y-3220796D01*
X348995Y-3392500D01*
X254000Y-433400D02*
G01*
X369900Y-317500D01*
X635000Y-317500D01*
X348995Y-633473D02*
G01*
X363220Y-647700D01*
X698500Y-647700D01*
X159004Y-633399D02*
G01*
X348995Y-823391D01*
X1244600Y-823391D01*
X2564536Y-749300D02*
G01*
X2552700Y-761136D01*
X2552700Y-1143000D01*
X1676400Y-735736D02*
G01*
X1790700Y-850036D01*
X1790700Y-1143000D01*
X3295497Y-571500D02*
G01*
X2806700Y-1060297D01*
X2806700Y-1143000D01*
X4814900Y-844295D02*
G01*
X4584700Y-1074496D01*
X4584700Y-1143000D01*
X5473700Y-912291D02*
G01*
X5676900Y-1115491D01*
X5676900Y-1905000D01*
X2377008Y-292100D02*
G01*
X2682671Y-597763D01*
X2933700Y-597763D01*
X1447800Y-3591991D02*
G01*
X1356791Y-3683000D01*
X889000Y-3683000D01*
X4814900Y-654304D02*
G01*
X4745304Y-723900D01*
X4432300Y-723900D01*
X4330700Y-825500D01*
X4330700Y-1143000D01*
X4070502Y-571500D02*
G01*
X3886200Y-571500D01*
X3314700Y-1143000D01*
X889000Y-317500D02*
G01*
X1068908Y-497408D01*
X1244600Y-497408D01*
X5245100Y-508000D02*
G01*
X5397500Y-508000D01*
X5473700Y-586231D01*
X254000Y-3592499D02*
G01*
X344500Y-3683000D01*
X635000Y-3683000D01*
X1447800Y-3266008D02*
G01*
X1373708Y-3340100D01*
X660400Y-3340100D01*
X541096Y-3220796D01*
X520700Y-3220796D01*
X1244600Y-823391D02*
G01*
X1332255Y-735736D01*
X1676400Y-735736D01*
X1778000Y-3391763D02*
G01*
X1652244Y-3266008D01*
X1447800Y-3266008D01*
X1778000Y-3542436D02*
G01*
X1943963Y-3542436D01*
X2044700Y-3441700D01*
X2044700Y-2921000D01*
X5448300Y-3376091D02*
G01*
X5234508Y-3162300D01*
X4800600Y-3162300D01*
X4730495Y-3232404D01*
X4700600Y-3232404D01*
X4070502Y-571500D02*
G01*
X4502302Y-139700D01*
X4610100Y-139700D01*
X4698136Y-227736D01*
X4698136Y-304800D01*
X5372100Y-3683000D02*
G01*
X5651500Y-3403600D01*
X5651500Y-3251200D01*
X5448300Y-3050031D01*
X4584700Y-2921000D02*
G01*
X4584700Y-2298700D01*
X4724400Y-2159000D01*
X5676900Y-2159000D01*
X2120900Y-2667000D02*
G01*
X2044700Y-2743200D01*
X2044700Y-2921000D01*
X2702991Y-292100D02*
G01*
X2857500Y-292100D01*
X2564638Y-749300D02*
G01*
X2933700Y-748537D01*
D11*
G01*
X2703000Y-292100D03*
D12*
G01*
X2377008Y-292100D03*
D13*
G01*
X4070502Y-571500D03*
G01*
X3295497Y-571500D03*
D14*
G01*
X4700600Y-3232404D03*
G01*
X4700600Y-3422395D03*
G01*
X4900599Y-3327400D03*
D15*
G01*
X348995Y-3392500D03*
G01*
X159004Y-3392500D03*
G01*
X254000Y-3592499D03*
G01*
X159004Y-633399D03*
G01*
X348995Y-633399D03*
G01*
X254000Y-433400D03*
D14*
G01*
X4814900Y-654304D03*
G01*
X4814900Y-844295D03*
G01*
X5014899Y-749300D03*
D16*
G01*
X4507624Y-3683000D03*
G01*
X4356975Y-3683000D03*
D17*
G01*
X1778000Y-3542424D03*
D18*
G01*
X1778000Y-3391763D03*
D17*
G01*
X1676400Y-585075D03*
D18*
G01*
X1676400Y-735736D03*
D16*
G01*
X4698124Y-304800D03*
G01*
X4547475Y-304800D03*
G01*
X2564524Y-749300D03*
G01*
X2413875Y-749300D03*
D17*
G01*
X2933700Y-597775D03*
D18*
G01*
X2933700Y-748436D03*
D19*
G01*
X5448300Y-3376100D03*
G01*
X5448300Y-3050099D03*
G01*
X1447800Y-3265999D03*
G01*
X1447800Y-3592000D03*
G01*
X1244600Y-823400D03*
G01*
X1244600Y-497399D03*
G01*
X5473700Y-586299D03*
G01*
X5473700Y-912300D03*
D20*
G01*
X5092700Y-1143000D03*
G01*
X4838700Y-1143000D03*
G01*
X4584700Y-1143000D03*
G01*
X4330700Y-1143000D03*
G01*
X4076700Y-1143000D03*
G01*
X3822700Y-1143000D03*
G01*
X3568700Y-1143000D03*
G01*
X3314700Y-1143000D03*
G01*
X3060700Y-1143000D03*
G01*
X2806700Y-1143000D03*
G01*
X2552700Y-1143000D03*
G01*
X2298700Y-1143000D03*
G01*
X2044700Y-1143000D03*
G01*
X1790700Y-1143000D03*
G01*
X1536700Y-1143000D03*
G01*
X1282700Y-1143000D03*
G01*
X1028700Y-1143000D03*
G01*
X774700Y-1143000D03*
G01*
X520700Y-1143000D03*
G01*
X266700Y-1143000D03*
G01*
X5092700Y-2921000D03*
G01*
X4838700Y-2921000D03*
G01*
X4584700Y-2921000D03*
G01*
X4330700Y-2921000D03*
G01*
X4076700Y-2921000D03*
G01*
X3822700Y-2921000D03*
G01*
X3568700Y-2921000D03*
G01*
X3314700Y-2921000D03*
G01*
X3060700Y-2921000D03*
G01*
X2806700Y-2921000D03*
G01*
X2552700Y-2921000D03*
G01*
X2298700Y-2921000D03*
G01*
X2044700Y-2921000D03*
G01*
X1790700Y-2921000D03*
G01*
X1536700Y-2921000D03*
G01*
X1282700Y-2921000D03*
G01*
X1028700Y-2921000D03*
G01*
X774700Y-2921000D03*
G01*
X520700Y-2921000D03*
G01*
X266700Y-2921000D03*
G01*
X3249701Y-1719605D03*
G01*
X3249701Y-1465605D03*
D21*
G01*
X3249701Y-1973605D03*
D22*
G01*
X5676900Y-1905000D03*
G01*
X5676900Y-2159000D03*
D23*
G01*
X1866900Y-2667000D03*
D24*
G01*
X2120900Y-2667000D03*
G01*
X2374900Y-2667000D03*
G01*
X2628900Y-2667000D03*
D23*
G01*
X5372100Y-3683000D03*
D24*
G01*
X5118100Y-3683000D03*
D23*
G01*
X889000Y-3683000D03*
D24*
G01*
X635000Y-3683000D03*
D23*
G01*
X889000Y-317500D03*
D24*
G01*
X635000Y-317500D03*
D23*
G01*
X5372100Y-317500D03*
D24*
G01*
X5118100Y-317500D03*
D25*
G01*
X4948504Y-520700D03*
G01*
X5245100Y-508000D03*
G01*
X368300Y-3187700D03*
G01*
X698500Y-647700D03*
G01*
X2857500Y-292100D03*
G01*
X4553204Y-3422395D03*
M02*
