G04 Layer: BottomLayer*
G04 EasyEDA v6.5.34, 2023-08-13 08:00:09*
G04 3ef975804e8146baa9bbefacfd0b45dc,794d3a8cdbfe417db23b3599569a6dff,10*
G04 Gerber Generator version 0.2*
G04 Scale: 100 percent, Rotated: No, Reflected: No *
G04 Dimensions in millimeters *
G04 leading zeros omitted , absolute positions ,4 integer and 5 decimal *
%FSLAX45Y45*%
%MOMM*%

%ADD10C,0.8000*%
%ADD11C,1.5240*%
%ADD12R,1.5240X1.5240*%
%ADD13C,1.7000*%
%ADD14R,1.5748X1.5748*%
%ADD15C,1.5748*%
%ADD16C,0.6200*%

%LPD*%
D10*
X4553204Y-3422395D02*
G01*
X4553204Y-2952495D01*
X4584700Y-2921000D01*
X4948504Y-520700D02*
G01*
X4961204Y-508000D01*
X5245100Y-508000D01*
X774700Y-2921000D02*
G01*
X1028700Y-3175000D01*
X1803400Y-3175000D01*
X2044700Y-2933700D01*
X2044700Y-2921000D01*
X1282700Y-1143000D02*
G01*
X1866900Y-1727200D01*
X1866900Y-2667000D01*
X368300Y-3187700D02*
G01*
X508000Y-3187700D01*
X774700Y-2921000D01*
X5372100Y-3683000D02*
G01*
X5880100Y-3175000D01*
X5880100Y-2108200D01*
X5676900Y-1905000D01*
X3314700Y-2743200D02*
G01*
X4432300Y-2743200D01*
X4584700Y-2895600D01*
X4584700Y-2921000D01*
X2120900Y-2667000D02*
G01*
X2324100Y-2463800D01*
X3035300Y-2463800D01*
X3314700Y-2743200D01*
X3314700Y-2921000D01*
X698500Y-647700D02*
G01*
X774700Y-723900D01*
X774700Y-1143000D01*
X520700Y-1143000D02*
G01*
X520700Y-635000D01*
X838200Y-317500D01*
X889000Y-317500D01*
X2857500Y-292100D02*
G01*
X3251200Y-685800D01*
X5359400Y-685800D01*
X5676900Y-1003300D01*
X5676900Y-1905000D01*
X889000Y-3683000D02*
G01*
X4826000Y-3683000D01*
X5448300Y-3060700D01*
X5448300Y-2133600D01*
X5676900Y-1905000D01*
X889000Y-317500D02*
G01*
X1435100Y-863600D01*
X5232400Y-863600D01*
X5372100Y-990600D01*
X5372100Y-1701800D01*
X5575300Y-1905000D01*
X5676900Y-1905000D01*
X5372100Y-317500D02*
G01*
X5842000Y-787400D01*
X5842000Y-1714500D01*
X5676900Y-1905000D01*
D11*
G01*
X5092700Y-1143000D03*
G01*
X4838700Y-1143000D03*
G01*
X4584700Y-1143000D03*
G01*
X4330700Y-1143000D03*
G01*
X4076700Y-1143000D03*
G01*
X3822700Y-1143000D03*
G01*
X3568700Y-1143000D03*
G01*
X3314700Y-1143000D03*
G01*
X3060700Y-1143000D03*
G01*
X2806700Y-1143000D03*
G01*
X2552700Y-1143000D03*
G01*
X2298700Y-1143000D03*
G01*
X2044700Y-1143000D03*
G01*
X1790700Y-1143000D03*
G01*
X1536700Y-1143000D03*
G01*
X1282700Y-1143000D03*
G01*
X1028700Y-1143000D03*
G01*
X774700Y-1143000D03*
G01*
X520700Y-1143000D03*
G01*
X266700Y-1143000D03*
G01*
X5092700Y-2921000D03*
G01*
X4838700Y-2921000D03*
G01*
X4584700Y-2921000D03*
G01*
X4330700Y-2921000D03*
G01*
X4076700Y-2921000D03*
G01*
X3822700Y-2921000D03*
G01*
X3568700Y-2921000D03*
G01*
X3314700Y-2921000D03*
G01*
X3060700Y-2921000D03*
G01*
X2806700Y-2921000D03*
G01*
X2552700Y-2921000D03*
G01*
X2298700Y-2921000D03*
G01*
X2044700Y-2921000D03*
G01*
X1790700Y-2921000D03*
G01*
X1536700Y-2921000D03*
G01*
X1282700Y-2921000D03*
G01*
X1028700Y-2921000D03*
G01*
X774700Y-2921000D03*
G01*
X520700Y-2921000D03*
G01*
X266700Y-2921000D03*
G01*
X3249701Y-1719605D03*
G01*
X3249701Y-1465605D03*
D12*
G01*
X3249701Y-1973605D03*
D13*
G01*
X5676900Y-1905000D03*
G01*
X5676900Y-2159000D03*
D14*
G01*
X1866900Y-2667000D03*
D15*
G01*
X2120900Y-2667000D03*
G01*
X2374900Y-2667000D03*
G01*
X2628900Y-2667000D03*
D14*
G01*
X5372100Y-3683000D03*
D15*
G01*
X5118100Y-3683000D03*
D14*
G01*
X889000Y-3683000D03*
D15*
G01*
X635000Y-3683000D03*
D14*
G01*
X889000Y-317500D03*
D15*
G01*
X635000Y-317500D03*
D14*
G01*
X5372100Y-317500D03*
D15*
G01*
X5118100Y-317500D03*
D16*
G01*
X4948504Y-520700D03*
G01*
X5245100Y-508000D03*
G01*
X368300Y-3187700D03*
G01*
X698500Y-647700D03*
G01*
X2857500Y-292100D03*
G01*
X4553204Y-3422395D03*
M02*
