G04 Layer: TopSilkscreenLayer*
G04 EasyEDA v6.5.34, 2023-08-13 08:00:09*
G04 3ef975804e8146baa9bbefacfd0b45dc,794d3a8cdbfe417db23b3599569a6dff,10*
G04 Gerber Generator version 0.2*
G04 Scale: 100 percent, Rotated: No, Reflected: No *
G04 Dimensions in millimeters *
G04 leading zeros omitted , absolute positions ,4 integer and 5 decimal *
%FSLAX45Y45*%
%MOMM*%

%ADD10C,0.1524*%
%ADD11C,0.2540*%
%ADD12C,0.2032*%
%ADD13C,0.2030*%

%LPD*%
D10*
X324357Y-3798315D02*
G01*
X334771Y-3793236D01*
X345186Y-3782821D01*
X350520Y-3772407D01*
X355600Y-3756660D01*
X355600Y-3730752D01*
X350520Y-3715257D01*
X345186Y-3704844D01*
X334771Y-3694429D01*
X324357Y-3689350D01*
X303529Y-3689350D01*
X293370Y-3694429D01*
X282955Y-3704844D01*
X277621Y-3715257D01*
X272542Y-3730752D01*
X272542Y-3756660D01*
X277621Y-3772407D01*
X282955Y-3782821D01*
X293370Y-3793236D01*
X303529Y-3798315D01*
X324357Y-3798315D01*
X308863Y-3709923D02*
G01*
X277621Y-3678936D01*
X232918Y-3772407D02*
G01*
X232918Y-3777487D01*
X227837Y-3787902D01*
X222504Y-3793236D01*
X212089Y-3798315D01*
X191515Y-3798315D01*
X181102Y-3793236D01*
X175768Y-3787902D01*
X170687Y-3777487D01*
X170687Y-3767073D01*
X175768Y-3756660D01*
X186181Y-3741165D01*
X238252Y-3689350D01*
X165354Y-3689350D01*
X2463800Y-62484D02*
G01*
X2463800Y-171450D01*
X2463800Y-62484D02*
G01*
X2500122Y-62484D01*
X2515870Y-67563D01*
X2526029Y-77978D01*
X2531363Y-88392D01*
X2536443Y-104139D01*
X2536443Y-130047D01*
X2531363Y-145542D01*
X2526029Y-155955D01*
X2515870Y-166370D01*
X2500122Y-171450D01*
X2463800Y-171450D01*
X2633218Y-62484D02*
G01*
X2581147Y-62484D01*
X2576068Y-109220D01*
X2581147Y-104139D01*
X2596895Y-98805D01*
X2612390Y-98805D01*
X2627884Y-104139D01*
X2638297Y-114300D01*
X2643631Y-130047D01*
X2643631Y-140462D01*
X2638297Y-155955D01*
X2627884Y-166370D01*
X2612390Y-171450D01*
X2596895Y-171450D01*
X2581147Y-166370D01*
X2576068Y-161289D01*
X2570734Y-150876D01*
X3517900Y-214884D02*
G01*
X3517900Y-323850D01*
X3590543Y-214884D02*
G01*
X3517900Y-287528D01*
X3543808Y-261620D02*
G01*
X3590543Y-323850D01*
X3624834Y-214884D02*
G01*
X3624834Y-323850D01*
X3624834Y-214884D02*
G01*
X3692397Y-214884D01*
X3624834Y-266700D02*
G01*
X3666490Y-266700D01*
X3624834Y-323850D02*
G01*
X3692397Y-323850D01*
X3726688Y-214884D02*
G01*
X3768343Y-266700D01*
X3768343Y-323850D01*
X3810000Y-214884D02*
G01*
X3768343Y-266700D01*
X3844290Y-235712D02*
G01*
X3854450Y-230378D01*
X3870197Y-214884D01*
X3870197Y-323850D01*
X4611115Y-3269742D02*
G01*
X4606036Y-3259328D01*
X4595622Y-3248913D01*
X4585208Y-3243579D01*
X4569459Y-3238500D01*
X4543552Y-3238500D01*
X4528058Y-3243579D01*
X4517643Y-3248913D01*
X4507229Y-3259328D01*
X4502150Y-3269742D01*
X4502150Y-3290570D01*
X4507229Y-3300729D01*
X4517643Y-3311144D01*
X4528058Y-3316478D01*
X4543552Y-3321557D01*
X4569459Y-3321557D01*
X4585208Y-3316478D01*
X4595622Y-3311144D01*
X4606036Y-3300729D01*
X4611115Y-3290570D01*
X4611115Y-3269742D01*
X4522724Y-3285236D02*
G01*
X4491736Y-3316478D01*
X4590288Y-3355847D02*
G01*
X4595622Y-3366262D01*
X4611115Y-3382010D01*
X4502150Y-3382010D01*
X196342Y-227584D02*
G01*
X185928Y-232663D01*
X175513Y-243078D01*
X170179Y-253492D01*
X165100Y-269239D01*
X165100Y-295147D01*
X170179Y-310642D01*
X175513Y-321055D01*
X185928Y-331470D01*
X196342Y-336550D01*
X217170Y-336550D01*
X227329Y-331470D01*
X237744Y-321055D01*
X243078Y-310642D01*
X248157Y-295147D01*
X248157Y-269239D01*
X243078Y-253492D01*
X237744Y-243078D01*
X227329Y-232663D01*
X217170Y-227584D01*
X196342Y-227584D01*
X211836Y-315976D02*
G01*
X243078Y-346963D01*
X292862Y-227584D02*
G01*
X350012Y-227584D01*
X318770Y-269239D01*
X334518Y-269239D01*
X344931Y-274320D01*
X350012Y-279400D01*
X355345Y-295147D01*
X355345Y-305562D01*
X350012Y-321055D01*
X339597Y-331470D01*
X324104Y-336550D01*
X308610Y-336550D01*
X292862Y-331470D01*
X287781Y-326389D01*
X282447Y-315976D01*
X4712715Y-678942D02*
G01*
X4707636Y-668528D01*
X4697222Y-658113D01*
X4686808Y-652779D01*
X4671059Y-647700D01*
X4645152Y-647700D01*
X4629658Y-652779D01*
X4619243Y-658113D01*
X4608829Y-668528D01*
X4603750Y-678942D01*
X4603750Y-699770D01*
X4608829Y-709929D01*
X4619243Y-720344D01*
X4629658Y-725678D01*
X4645152Y-730757D01*
X4671059Y-730757D01*
X4686808Y-725678D01*
X4697222Y-720344D01*
X4707636Y-709929D01*
X4712715Y-699770D01*
X4712715Y-678942D01*
X4624324Y-694436D02*
G01*
X4593336Y-725678D01*
X4712715Y-817118D02*
G01*
X4640072Y-765047D01*
X4640072Y-843026D01*
X4712715Y-817118D02*
G01*
X4603750Y-817118D01*
X4738115Y-3619500D02*
G01*
X4629150Y-3619500D01*
X4738115Y-3619500D02*
G01*
X4738115Y-3666236D01*
X4733036Y-3681729D01*
X4727702Y-3687063D01*
X4717288Y-3692144D01*
X4706874Y-3692144D01*
X4696459Y-3687063D01*
X4691379Y-3681729D01*
X4686300Y-3666236D01*
X4686300Y-3619500D01*
X4686300Y-3655821D02*
G01*
X4629150Y-3692144D01*
X4717288Y-3726434D02*
G01*
X4722622Y-3736847D01*
X4738115Y-3752595D01*
X4629150Y-3752595D01*
X1854200Y-3760215D02*
G01*
X1854200Y-3651250D01*
X1854200Y-3760215D02*
G01*
X1807463Y-3760215D01*
X1791970Y-3755136D01*
X1786636Y-3749802D01*
X1781555Y-3739387D01*
X1781555Y-3728973D01*
X1786636Y-3718560D01*
X1791970Y-3713479D01*
X1807463Y-3708400D01*
X1854200Y-3708400D01*
X1817878Y-3708400D02*
G01*
X1781555Y-3651250D01*
X1741931Y-3734307D02*
G01*
X1741931Y-3739387D01*
X1736852Y-3749802D01*
X1731518Y-3755136D01*
X1721104Y-3760215D01*
X1700529Y-3760215D01*
X1690115Y-3755136D01*
X1684781Y-3749802D01*
X1679702Y-3739387D01*
X1679702Y-3728973D01*
X1684781Y-3718560D01*
X1695195Y-3703065D01*
X1747265Y-3651250D01*
X1674368Y-3651250D01*
X1587500Y-367284D02*
G01*
X1587500Y-476250D01*
X1587500Y-367284D02*
G01*
X1634236Y-367284D01*
X1649729Y-372363D01*
X1655063Y-377697D01*
X1660144Y-388112D01*
X1660144Y-398526D01*
X1655063Y-408939D01*
X1649729Y-414020D01*
X1634236Y-419100D01*
X1587500Y-419100D01*
X1623821Y-419100D02*
G01*
X1660144Y-476250D01*
X1704847Y-367284D02*
G01*
X1761997Y-367284D01*
X1731010Y-408939D01*
X1746504Y-408939D01*
X1756918Y-414020D01*
X1761997Y-419100D01*
X1767331Y-434847D01*
X1767331Y-445262D01*
X1761997Y-460755D01*
X1751584Y-471170D01*
X1736089Y-476250D01*
X1720595Y-476250D01*
X1704847Y-471170D01*
X1699768Y-466089D01*
X1694434Y-455676D01*
X4903215Y-228600D02*
G01*
X4794250Y-228600D01*
X4903215Y-228600D02*
G01*
X4903215Y-275336D01*
X4898136Y-290829D01*
X4892802Y-296163D01*
X4882388Y-301244D01*
X4871974Y-301244D01*
X4861559Y-296163D01*
X4856479Y-290829D01*
X4851400Y-275336D01*
X4851400Y-228600D01*
X4851400Y-264921D02*
G01*
X4794250Y-301244D01*
X4903215Y-387604D02*
G01*
X4830572Y-335534D01*
X4830572Y-413512D01*
X4903215Y-387604D02*
G01*
X4794250Y-387604D01*
X2769615Y-660400D02*
G01*
X2660650Y-660400D01*
X2769615Y-660400D02*
G01*
X2769615Y-707136D01*
X2764536Y-722629D01*
X2759202Y-727963D01*
X2748788Y-733044D01*
X2738374Y-733044D01*
X2727959Y-727963D01*
X2722879Y-722629D01*
X2717800Y-707136D01*
X2717800Y-660400D01*
X2717800Y-696721D02*
G01*
X2660650Y-733044D01*
X2769615Y-829818D02*
G01*
X2769615Y-777747D01*
X2722879Y-772668D01*
X2727959Y-777747D01*
X2733293Y-793495D01*
X2733293Y-808989D01*
X2727959Y-824484D01*
X2717800Y-834897D01*
X2702052Y-840231D01*
X2691638Y-840231D01*
X2676143Y-834897D01*
X2665729Y-824484D01*
X2660650Y-808989D01*
X2660650Y-793495D01*
X2665729Y-777747D01*
X2670809Y-772668D01*
X2681224Y-767334D01*
X2844800Y-392684D02*
G01*
X2844800Y-501650D01*
X2844800Y-392684D02*
G01*
X2891536Y-392684D01*
X2907029Y-397763D01*
X2912363Y-403097D01*
X2917443Y-413512D01*
X2917443Y-423926D01*
X2912363Y-434339D01*
X2907029Y-439420D01*
X2891536Y-444500D01*
X2844800Y-444500D01*
X2881122Y-444500D02*
G01*
X2917443Y-501650D01*
X3014218Y-408178D02*
G01*
X3008884Y-397763D01*
X2993390Y-392684D01*
X2982975Y-392684D01*
X2967481Y-397763D01*
X2957068Y-413512D01*
X2951734Y-439420D01*
X2951734Y-465328D01*
X2957068Y-486155D01*
X2967481Y-496570D01*
X2982975Y-501650D01*
X2988309Y-501650D01*
X3003804Y-496570D01*
X3014218Y-486155D01*
X3019297Y-470662D01*
X3019297Y-465328D01*
X3014218Y-449834D01*
X3003804Y-439420D01*
X2988309Y-434339D01*
X2982975Y-434339D01*
X2967481Y-439420D01*
X2957068Y-449834D01*
X2951734Y-465328D01*
X495300Y-1408684D02*
G01*
X495300Y-1486662D01*
X500379Y-1502155D01*
X510794Y-1512570D01*
X526542Y-1517650D01*
X536955Y-1517650D01*
X552450Y-1512570D01*
X562863Y-1502155D01*
X567944Y-1486662D01*
X567944Y-1408684D01*
X602234Y-1429512D02*
G01*
X612647Y-1424178D01*
X628395Y-1408684D01*
X628395Y-1517650D01*
X5829223Y-3264915D02*
G01*
X5829223Y-3186937D01*
X5824143Y-3171444D01*
X5813729Y-3161029D01*
X5798235Y-3155950D01*
X5787821Y-3155950D01*
X5772073Y-3161029D01*
X5761659Y-3171444D01*
X5756579Y-3186937D01*
X5756579Y-3264915D01*
X5722289Y-3264915D02*
G01*
X5722289Y-3155950D01*
X5722289Y-3264915D02*
G01*
X5680633Y-3155950D01*
X5639231Y-3264915D02*
G01*
X5680633Y-3155950D01*
X5639231Y-3264915D02*
G01*
X5639231Y-3155950D01*
X5604941Y-3244087D02*
G01*
X5594527Y-3249421D01*
X5578779Y-3264915D01*
X5578779Y-3155950D01*
X1320723Y-3480815D02*
G01*
X1320723Y-3402837D01*
X1315643Y-3387344D01*
X1305229Y-3376929D01*
X1289735Y-3371850D01*
X1279321Y-3371850D01*
X1263573Y-3376929D01*
X1253159Y-3387344D01*
X1248079Y-3402837D01*
X1248079Y-3480815D01*
X1213789Y-3480815D02*
G01*
X1213789Y-3371850D01*
X1213789Y-3480815D02*
G01*
X1172133Y-3371850D01*
X1130731Y-3480815D02*
G01*
X1172133Y-3371850D01*
X1130731Y-3480815D02*
G01*
X1130731Y-3371850D01*
X1091107Y-3454907D02*
G01*
X1091107Y-3459987D01*
X1086027Y-3470402D01*
X1080693Y-3475736D01*
X1070279Y-3480815D01*
X1049705Y-3480815D01*
X1039291Y-3475736D01*
X1033957Y-3470402D01*
X1028877Y-3459987D01*
X1028877Y-3449573D01*
X1033957Y-3439160D01*
X1044371Y-3423665D01*
X1096441Y-3371850D01*
X1023543Y-3371850D01*
X825576Y-583184D02*
G01*
X825576Y-661162D01*
X830656Y-676655D01*
X841070Y-687070D01*
X856564Y-692150D01*
X866978Y-692150D01*
X882726Y-687070D01*
X893140Y-676655D01*
X898220Y-661162D01*
X898220Y-583184D01*
X932510Y-583184D02*
G01*
X932510Y-692150D01*
X932510Y-583184D02*
G01*
X974166Y-692150D01*
X1015568Y-583184D02*
G01*
X974166Y-692150D01*
X1015568Y-583184D02*
G01*
X1015568Y-692150D01*
X1060272Y-583184D02*
G01*
X1117422Y-583184D01*
X1086434Y-624839D01*
X1101928Y-624839D01*
X1112342Y-629920D01*
X1117422Y-635000D01*
X1122756Y-650747D01*
X1122756Y-661162D01*
X1117422Y-676655D01*
X1107008Y-687070D01*
X1091514Y-692150D01*
X1076020Y-692150D01*
X1060272Y-687070D01*
X1055192Y-681989D01*
X1049858Y-671576D01*
X5626176Y-710184D02*
G01*
X5626176Y-788162D01*
X5631256Y-803655D01*
X5641670Y-814070D01*
X5657164Y-819150D01*
X5667578Y-819150D01*
X5683326Y-814070D01*
X5693740Y-803655D01*
X5698820Y-788162D01*
X5698820Y-710184D01*
X5733110Y-710184D02*
G01*
X5733110Y-819150D01*
X5733110Y-710184D02*
G01*
X5774766Y-819150D01*
X5816168Y-710184D02*
G01*
X5774766Y-819150D01*
X5816168Y-710184D02*
G01*
X5816168Y-819150D01*
X5902528Y-710184D02*
G01*
X5850458Y-782828D01*
X5928436Y-782828D01*
X5902528Y-710184D02*
G01*
X5902528Y-819150D01*
X5702300Y-3747515D02*
G01*
X5702300Y-3638550D01*
X5702300Y-3747515D02*
G01*
X5660643Y-3638550D01*
X5619241Y-3747515D02*
G01*
X5660643Y-3638550D01*
X5619241Y-3747515D02*
G01*
X5619241Y-3638550D01*
X5584952Y-3726687D02*
G01*
X5574538Y-3732021D01*
X5558790Y-3747515D01*
X5558790Y-3638550D01*
X1244600Y-3734815D02*
G01*
X1244600Y-3625850D01*
X1244600Y-3734815D02*
G01*
X1202944Y-3625850D01*
X1161542Y-3734815D02*
G01*
X1202944Y-3625850D01*
X1161542Y-3734815D02*
G01*
X1161542Y-3625850D01*
X1121918Y-3708907D02*
G01*
X1121918Y-3713987D01*
X1116837Y-3724402D01*
X1111504Y-3729736D01*
X1101089Y-3734815D01*
X1080515Y-3734815D01*
X1070102Y-3729736D01*
X1064768Y-3724402D01*
X1059687Y-3713987D01*
X1059687Y-3703573D01*
X1064768Y-3693160D01*
X1075181Y-3677665D01*
X1127252Y-3625850D01*
X1054354Y-3625850D01*
X1066800Y-252984D02*
G01*
X1066800Y-361950D01*
X1066800Y-252984D02*
G01*
X1108455Y-361950D01*
X1149857Y-252984D02*
G01*
X1108455Y-361950D01*
X1149857Y-252984D02*
G01*
X1149857Y-361950D01*
X1194562Y-252984D02*
G01*
X1251712Y-252984D01*
X1220470Y-294639D01*
X1236218Y-294639D01*
X1246631Y-299720D01*
X1251712Y-304800D01*
X1257045Y-320547D01*
X1257045Y-330962D01*
X1251712Y-346455D01*
X1241297Y-356870D01*
X1225804Y-361950D01*
X1210310Y-361950D01*
X1194562Y-356870D01*
X1189481Y-351789D01*
X1184147Y-341376D01*
X5562600Y-252984D02*
G01*
X5562600Y-361950D01*
X5562600Y-252984D02*
G01*
X5604256Y-361950D01*
X5645658Y-252984D02*
G01*
X5604256Y-361950D01*
X5645658Y-252984D02*
G01*
X5645658Y-361950D01*
X5732018Y-252984D02*
G01*
X5679947Y-325628D01*
X5757925Y-325628D01*
X5732018Y-252984D02*
G01*
X5732018Y-361950D01*
G36*
X2377033Y-194360D02*
G01*
X2377033Y-234848D01*
X2407513Y-234848D01*
X2407513Y-194360D01*
G37*
G36*
X2377033Y-349351D02*
G01*
X2377033Y-389839D01*
X2407513Y-389839D01*
X2407513Y-349351D01*
G37*
G36*
X5505551Y-3050133D02*
G01*
X5505551Y-3080613D01*
X5546039Y-3080613D01*
X5546039Y-3050133D01*
G37*
G36*
X5350560Y-3050133D02*
G01*
X5350560Y-3080613D01*
X5391048Y-3080613D01*
X5391048Y-3050133D01*
G37*
G36*
X1350060Y-3561486D02*
G01*
X1350060Y-3591966D01*
X1390548Y-3591966D01*
X1390548Y-3561486D01*
G37*
G36*
X1505051Y-3561486D02*
G01*
X1505051Y-3591966D01*
X1545539Y-3591966D01*
X1545539Y-3561486D01*
G37*
G36*
X1301851Y-497433D02*
G01*
X1301851Y-527913D01*
X1342339Y-527913D01*
X1342339Y-497433D01*
G37*
G36*
X1146860Y-497433D02*
G01*
X1146860Y-527913D01*
X1187348Y-527913D01*
X1187348Y-497433D01*
G37*
G36*
X5375960Y-881786D02*
G01*
X5375960Y-912266D01*
X5416448Y-912266D01*
X5416448Y-881786D01*
G37*
G36*
X5530951Y-881786D02*
G01*
X5530951Y-912266D01*
X5571439Y-912266D01*
X5571439Y-881786D01*
G37*
X2399878Y-201978D02*
G01*
X2680121Y-201978D01*
X2680121Y-201978D02*
G01*
X2680121Y-229778D01*
X2399878Y-382221D02*
G01*
X2680121Y-382221D01*
X2680121Y-382221D02*
G01*
X2680121Y-354421D01*
X2442822Y-201978D02*
G01*
X2442822Y-382221D01*
D11*
X3377999Y-510174D02*
G01*
X3377999Y-361500D01*
X3377999Y-781499D02*
G01*
X3377999Y-632825D01*
X3988003Y-510174D02*
G01*
X3988003Y-361500D01*
X3988003Y-781499D02*
G01*
X3988003Y-632825D01*
X3988003Y-361500D02*
G01*
X3377999Y-361500D01*
X3988003Y-781499D02*
G01*
X3377999Y-781499D01*
X3860800Y-673100D02*
G01*
X3505200Y-673100D01*
X3505200Y-469900D01*
X3860800Y-469900D01*
X3860800Y-673100D01*
D10*
X4727978Y-3480020D02*
G01*
X4873221Y-3480020D01*
X4873221Y-3376858D01*
X4727978Y-3174779D02*
G01*
X4873221Y-3174779D01*
X4873221Y-3277941D01*
X4727978Y-3372939D02*
G01*
X4727978Y-3281860D01*
X101379Y-3419878D02*
G01*
X101379Y-3565121D01*
X204541Y-3565121D01*
X406620Y-3419878D02*
G01*
X406620Y-3565121D01*
X303458Y-3565121D01*
X208460Y-3419878D02*
G01*
X299539Y-3419878D01*
X406620Y-606021D02*
G01*
X406620Y-460778D01*
X303458Y-460778D01*
X101379Y-606021D02*
G01*
X101379Y-460778D01*
X204541Y-460778D01*
X299539Y-606021D02*
G01*
X208460Y-606021D01*
X4842278Y-901920D02*
G01*
X4987521Y-901920D01*
X4987521Y-798758D01*
X4842278Y-596679D02*
G01*
X4987521Y-596679D01*
X4987521Y-699841D01*
X4842278Y-794839D02*
G01*
X4842278Y-703760D01*
X4474921Y-3749060D02*
G01*
X4570808Y-3749060D01*
X4570808Y-3616939D01*
X4474921Y-3616939D01*
X4389678Y-3749060D02*
G01*
X4293791Y-3749060D01*
X4293791Y-3616939D01*
X4389678Y-3616939D01*
X1711939Y-3509721D02*
G01*
X1711939Y-3605608D01*
X1844060Y-3605608D01*
X1844060Y-3509721D01*
X1711939Y-3424478D02*
G01*
X1711939Y-3328591D01*
X1844060Y-3328591D01*
X1844060Y-3424478D01*
X1742460Y-617778D02*
G01*
X1742460Y-521891D01*
X1610339Y-521891D01*
X1610339Y-617778D01*
X1742460Y-703021D02*
G01*
X1742460Y-798908D01*
X1610339Y-798908D01*
X1610339Y-703021D01*
X4665421Y-370860D02*
G01*
X4761308Y-370860D01*
X4761308Y-238739D01*
X4665421Y-238739D01*
X4580178Y-370860D02*
G01*
X4484291Y-370860D01*
X4484291Y-238739D01*
X4580178Y-238739D01*
X2531821Y-815360D02*
G01*
X2627708Y-815360D01*
X2627708Y-683239D01*
X2531821Y-683239D01*
X2446578Y-815360D02*
G01*
X2350691Y-815360D01*
X2350691Y-683239D01*
X2446578Y-683239D01*
X2999760Y-630478D02*
G01*
X2999760Y-534591D01*
X2867639Y-534591D01*
X2867639Y-630478D01*
X2999760Y-715721D02*
G01*
X2999760Y-811608D01*
X2867639Y-811608D01*
X2867639Y-715721D01*
D11*
X129700Y-981999D02*
G01*
X5229699Y-981999D01*
X5229699Y-981999D02*
G01*
X5229699Y-3082000D01*
X63380Y-1632000D02*
G01*
X63380Y-2431999D01*
X571500Y-1632000D02*
G01*
X571500Y-2431999D01*
X-299Y-1632000D02*
G01*
X-299Y-2413000D01*
X-299Y-1632000D02*
G01*
X571500Y-1632000D01*
X-299Y-2431999D02*
G01*
X571500Y-2431999D01*
X129700Y-3082000D02*
G01*
X129700Y-981999D01*
X5229699Y-3082000D02*
G01*
X129700Y-3082000D01*
X5918200Y-1663700D02*
G01*
X5892800Y-1663700D01*
X5918200Y-2400300D02*
G01*
X5892800Y-2400300D01*
X5918200Y-1663700D02*
G01*
X5918200Y-1778000D01*
X5918200Y-2159000D02*
G01*
X5918200Y-1905000D01*
X5918200Y-2400300D02*
G01*
X5918200Y-2298700D01*
X5778500Y-2400300D02*
G01*
X5334000Y-2400300D01*
X5334000Y-2400300D02*
G01*
X5334000Y-1663700D01*
X5778500Y-1663700D01*
D12*
X2755900Y-2540000D02*
G01*
X2755900Y-2794000D01*
X1739900Y-2794000D01*
X1739900Y-2540000D01*
X1930400Y-2540000D01*
D13*
X2755900Y-2540000D02*
G01*
X1930400Y-2540000D01*
D10*
X5538421Y-3072978D02*
G01*
X5538421Y-3353221D01*
X5538421Y-3353221D02*
G01*
X5510621Y-3353221D01*
X5358178Y-3072978D02*
G01*
X5358178Y-3353221D01*
X5358178Y-3353221D02*
G01*
X5385978Y-3353221D01*
X5538421Y-3115922D02*
G01*
X5358178Y-3115922D01*
X1357678Y-3569121D02*
G01*
X1357678Y-3288878D01*
X1357678Y-3288878D02*
G01*
X1385478Y-3288878D01*
X1537921Y-3569121D02*
G01*
X1537921Y-3288878D01*
X1537921Y-3288878D02*
G01*
X1510121Y-3288878D01*
X1357678Y-3526177D02*
G01*
X1537921Y-3526177D01*
X1334721Y-520278D02*
G01*
X1334721Y-800521D01*
X1334721Y-800521D02*
G01*
X1306921Y-800521D01*
X1154478Y-520278D02*
G01*
X1154478Y-800521D01*
X1154478Y-800521D02*
G01*
X1182278Y-800521D01*
X1334721Y-563222D02*
G01*
X1154478Y-563222D01*
X5383578Y-889421D02*
G01*
X5383578Y-609178D01*
X5383578Y-609178D02*
G01*
X5411378Y-609178D01*
X5563821Y-889421D02*
G01*
X5563821Y-609178D01*
X5563821Y-609178D02*
G01*
X5536021Y-609178D01*
X5383578Y-846477D02*
G01*
X5563821Y-846477D01*
D12*
X4991100Y-3810000D02*
G01*
X4991100Y-3558539D01*
X5499100Y-3558539D01*
X5499100Y-3810000D01*
X4991100Y-3810000D01*
X508000Y-3810000D02*
G01*
X508000Y-3558539D01*
X1016000Y-3558539D01*
X1016000Y-3810000D01*
X508000Y-3810000D01*
X508000Y-444500D02*
G01*
X508000Y-193039D01*
X1016000Y-193039D01*
X1016000Y-444500D01*
X508000Y-444500D01*
X4991100Y-444500D02*
G01*
X4991100Y-193039D01*
X5499100Y-193039D01*
X5499100Y-444500D01*
X4991100Y-444500D01*
D11*
G75*
G01
X647700Y-2679700D02*
G03X647700Y-2679700I-76200J0D01*
M02*
