G04 Layer: BottomSilkscreenLayer*
G04 EasyEDA v6.5.34, 2023-08-13 08:00:09*
G04 3ef975804e8146baa9bbefacfd0b45dc,794d3a8cdbfe417db23b3599569a6dff,10*
G04 Gerber Generator version 0.2*
G04 Scale: 100 percent, Rotated: No, Reflected: No *
G04 Dimensions in millimeters *
G04 leading zeros omitted , absolute positions ,4 integer and 5 decimal *
%FSLAX45Y45*%
%MOMM*%

%ADD10C,0.2032*%
%ADD11C,0.1524*%

%LPD*%
D10*
X5097272Y-831342D02*
G01*
X5106670Y-835913D01*
X5116068Y-845312D01*
X5120640Y-854710D01*
X5120640Y-873505D01*
X5116068Y-882904D01*
X5106670Y-892302D01*
X5097272Y-897128D01*
X5083047Y-901700D01*
X5059679Y-901700D01*
X5045709Y-897128D01*
X5036311Y-892302D01*
X5026913Y-882904D01*
X5022088Y-873505D01*
X5022088Y-854710D01*
X5026913Y-845312D01*
X5036311Y-835913D01*
X5045709Y-831342D01*
X5059679Y-831342D01*
X5059679Y-854710D02*
G01*
X5059679Y-831342D01*
X5120640Y-800354D02*
G01*
X5022088Y-800354D01*
X5120640Y-800354D02*
G01*
X5120640Y-758189D01*
X5116068Y-743965D01*
X5111241Y-739394D01*
X5101843Y-734821D01*
X5087874Y-734821D01*
X5078475Y-739394D01*
X5073650Y-743965D01*
X5069077Y-758189D01*
X5069077Y-800354D01*
X5101843Y-703834D02*
G01*
X5106670Y-694436D01*
X5120640Y-680212D01*
X5022088Y-680212D01*
X5106670Y-593089D02*
G01*
X5116068Y-597662D01*
X5120640Y-611886D01*
X5120640Y-621284D01*
X5116068Y-635254D01*
X5101843Y-644652D01*
X5078475Y-649223D01*
X5054854Y-649223D01*
X5036311Y-644652D01*
X5026913Y-635254D01*
X5022088Y-621284D01*
X5022088Y-616457D01*
X5026913Y-602487D01*
X5036311Y-593089D01*
X5050281Y-588263D01*
X5054854Y-588263D01*
X5069077Y-593089D01*
X5078475Y-602487D01*
X5083047Y-616457D01*
X5083047Y-621284D01*
X5078475Y-635254D01*
X5069077Y-644652D01*
X5054854Y-649223D01*
X4881372Y-831342D02*
G01*
X4890770Y-835913D01*
X4900168Y-845312D01*
X4904740Y-854710D01*
X4904740Y-873505D01*
X4900168Y-882904D01*
X4890770Y-892302D01*
X4881372Y-897128D01*
X4867147Y-901700D01*
X4843779Y-901700D01*
X4829809Y-897128D01*
X4820411Y-892302D01*
X4811013Y-882904D01*
X4806188Y-873505D01*
X4806188Y-854710D01*
X4811013Y-845312D01*
X4820411Y-835913D01*
X4829809Y-831342D01*
X4843779Y-831342D01*
X4843779Y-854710D02*
G01*
X4843779Y-831342D01*
X4904740Y-800354D02*
G01*
X4806188Y-800354D01*
X4904740Y-800354D02*
G01*
X4904740Y-758189D01*
X4900168Y-743965D01*
X4895341Y-739394D01*
X4885943Y-734821D01*
X4871974Y-734821D01*
X4862575Y-739394D01*
X4857750Y-743965D01*
X4853177Y-758189D01*
X4853177Y-800354D01*
X4885943Y-703834D02*
G01*
X4890770Y-694436D01*
X4904740Y-680212D01*
X4806188Y-680212D01*
X4904740Y-583692D02*
G01*
X4806188Y-630681D01*
X4904740Y-649223D02*
G01*
X4904740Y-583692D01*
X4614672Y-831342D02*
G01*
X4624070Y-835913D01*
X4633468Y-845312D01*
X4638040Y-854710D01*
X4638040Y-873505D01*
X4633468Y-882904D01*
X4624070Y-892302D01*
X4614672Y-897128D01*
X4600447Y-901700D01*
X4577079Y-901700D01*
X4563109Y-897128D01*
X4553711Y-892302D01*
X4544313Y-882904D01*
X4539488Y-873505D01*
X4539488Y-854710D01*
X4544313Y-845312D01*
X4553711Y-835913D01*
X4563109Y-831342D01*
X4577079Y-831342D01*
X4577079Y-854710D02*
G01*
X4577079Y-831342D01*
X4638040Y-800354D02*
G01*
X4539488Y-800354D01*
X4638040Y-800354D02*
G01*
X4539488Y-734821D01*
X4638040Y-734821D02*
G01*
X4539488Y-734821D01*
X4638040Y-703834D02*
G01*
X4539488Y-703834D01*
X4638040Y-703834D02*
G01*
X4638040Y-670813D01*
X4633468Y-656844D01*
X4624070Y-647445D01*
X4614672Y-642873D01*
X4600447Y-638047D01*
X4577079Y-638047D01*
X4563109Y-642873D01*
X4553711Y-647445D01*
X4544313Y-656844D01*
X4539488Y-670813D01*
X4539488Y-703834D01*
X4347972Y-831342D02*
G01*
X4357370Y-835913D01*
X4366768Y-845312D01*
X4371340Y-854710D01*
X4371340Y-873505D01*
X4366768Y-882904D01*
X4357370Y-892302D01*
X4347972Y-897128D01*
X4333747Y-901700D01*
X4310379Y-901700D01*
X4296409Y-897128D01*
X4287011Y-892302D01*
X4277613Y-882904D01*
X4272788Y-873505D01*
X4272788Y-854710D01*
X4277613Y-845312D01*
X4287011Y-835913D01*
X4296409Y-831342D01*
X4310379Y-831342D01*
X4310379Y-854710D02*
G01*
X4310379Y-831342D01*
X4371340Y-800354D02*
G01*
X4272788Y-800354D01*
X4371340Y-800354D02*
G01*
X4371340Y-758189D01*
X4366768Y-743965D01*
X4361941Y-739394D01*
X4352543Y-734821D01*
X4338574Y-734821D01*
X4329175Y-739394D01*
X4324350Y-743965D01*
X4319777Y-758189D01*
X4319777Y-800354D01*
X4352543Y-703834D02*
G01*
X4357370Y-694436D01*
X4371340Y-680212D01*
X4272788Y-680212D01*
X4371340Y-625855D02*
G01*
X4366768Y-639826D01*
X4357370Y-644652D01*
X4347972Y-644652D01*
X4338574Y-639826D01*
X4333747Y-630681D01*
X4329175Y-611886D01*
X4324350Y-597662D01*
X4314952Y-588263D01*
X4305554Y-583692D01*
X4291584Y-583692D01*
X4282186Y-588263D01*
X4277613Y-593089D01*
X4272788Y-607060D01*
X4272788Y-625855D01*
X4277613Y-639826D01*
X4282186Y-644652D01*
X4291584Y-649223D01*
X4305554Y-649223D01*
X4314952Y-644652D01*
X4324350Y-635254D01*
X4329175Y-621284D01*
X4333747Y-602487D01*
X4338574Y-593089D01*
X4347972Y-588263D01*
X4357370Y-588263D01*
X4366768Y-593089D01*
X4371340Y-607060D01*
X4371340Y-625855D01*
X4119372Y-831342D02*
G01*
X4128770Y-835913D01*
X4138168Y-845312D01*
X4142740Y-854710D01*
X4142740Y-873505D01*
X4138168Y-882904D01*
X4128770Y-892302D01*
X4119372Y-897128D01*
X4105147Y-901700D01*
X4081779Y-901700D01*
X4067809Y-897128D01*
X4058411Y-892302D01*
X4049013Y-882904D01*
X4044188Y-873505D01*
X4044188Y-854710D01*
X4049013Y-845312D01*
X4058411Y-835913D01*
X4067809Y-831342D01*
X4081779Y-831342D01*
X4081779Y-854710D02*
G01*
X4081779Y-831342D01*
X4142740Y-800354D02*
G01*
X4044188Y-800354D01*
X4142740Y-800354D02*
G01*
X4142740Y-758189D01*
X4138168Y-743965D01*
X4133341Y-739394D01*
X4123943Y-734821D01*
X4109974Y-734821D01*
X4100575Y-739394D01*
X4095750Y-743965D01*
X4091177Y-758189D01*
X4091177Y-800354D01*
X4123943Y-703834D02*
G01*
X4128770Y-694436D01*
X4142740Y-680212D01*
X4044188Y-680212D01*
X4109974Y-588263D02*
G01*
X4095750Y-593089D01*
X4086352Y-602487D01*
X4081779Y-616457D01*
X4081779Y-621284D01*
X4086352Y-635254D01*
X4095750Y-644652D01*
X4109974Y-649223D01*
X4114545Y-649223D01*
X4128770Y-644652D01*
X4138168Y-635254D01*
X4142740Y-621284D01*
X4142740Y-616457D01*
X4138168Y-602487D01*
X4128770Y-593089D01*
X4109974Y-588263D01*
X4086352Y-588263D01*
X4062984Y-593089D01*
X4049013Y-602487D01*
X4044188Y-616457D01*
X4044188Y-625855D01*
X4049013Y-639826D01*
X4058411Y-644652D01*
X3852672Y-844042D02*
G01*
X3862070Y-848613D01*
X3871468Y-858012D01*
X3876040Y-867410D01*
X3876040Y-886205D01*
X3871468Y-895604D01*
X3862070Y-905002D01*
X3852672Y-909828D01*
X3838447Y-914400D01*
X3815079Y-914400D01*
X3801109Y-909828D01*
X3791711Y-905002D01*
X3782313Y-895604D01*
X3777488Y-886205D01*
X3777488Y-867410D01*
X3782313Y-858012D01*
X3791711Y-848613D01*
X3801109Y-844042D01*
X3815079Y-844042D01*
X3815079Y-867410D02*
G01*
X3815079Y-844042D01*
X3876040Y-813054D02*
G01*
X3777488Y-813054D01*
X3876040Y-813054D02*
G01*
X3876040Y-770889D01*
X3871468Y-756665D01*
X3866641Y-752094D01*
X3857243Y-747521D01*
X3843274Y-747521D01*
X3833875Y-752094D01*
X3829050Y-756665D01*
X3824477Y-770889D01*
X3824477Y-813054D01*
X3852672Y-711707D02*
G01*
X3857243Y-711707D01*
X3866641Y-707136D01*
X3871468Y-702310D01*
X3876040Y-692912D01*
X3876040Y-674115D01*
X3871468Y-664718D01*
X3866641Y-660145D01*
X3857243Y-655573D01*
X3847845Y-655573D01*
X3838447Y-660145D01*
X3824477Y-669544D01*
X3777488Y-716534D01*
X3777488Y-650747D01*
X3876040Y-591565D02*
G01*
X3871468Y-605789D01*
X3857243Y-615187D01*
X3833875Y-619760D01*
X3819652Y-619760D01*
X3796284Y-615187D01*
X3782313Y-605789D01*
X3777488Y-591565D01*
X3777488Y-582168D01*
X3782313Y-568197D01*
X3796284Y-558800D01*
X3819652Y-554228D01*
X3833875Y-554228D01*
X3857243Y-558800D01*
X3871468Y-568197D01*
X3876040Y-582168D01*
X3876040Y-591565D01*
X3598672Y-844042D02*
G01*
X3608070Y-848613D01*
X3617468Y-858012D01*
X3622040Y-867410D01*
X3622040Y-886205D01*
X3617468Y-895604D01*
X3608070Y-905002D01*
X3598672Y-909828D01*
X3584447Y-914400D01*
X3561079Y-914400D01*
X3547109Y-909828D01*
X3537711Y-905002D01*
X3528313Y-895604D01*
X3523488Y-886205D01*
X3523488Y-867410D01*
X3528313Y-858012D01*
X3537711Y-848613D01*
X3547109Y-844042D01*
X3561079Y-844042D01*
X3561079Y-867410D02*
G01*
X3561079Y-844042D01*
X3622040Y-813054D02*
G01*
X3523488Y-813054D01*
X3622040Y-813054D02*
G01*
X3622040Y-770889D01*
X3617468Y-756665D01*
X3612641Y-752094D01*
X3603243Y-747521D01*
X3589274Y-747521D01*
X3579875Y-752094D01*
X3575050Y-756665D01*
X3570477Y-770889D01*
X3570477Y-813054D01*
X3598672Y-711707D02*
G01*
X3603243Y-711707D01*
X3612641Y-707136D01*
X3617468Y-702310D01*
X3622040Y-692912D01*
X3622040Y-674115D01*
X3617468Y-664718D01*
X3612641Y-660145D01*
X3603243Y-655573D01*
X3593845Y-655573D01*
X3584447Y-660145D01*
X3570477Y-669544D01*
X3523488Y-716534D01*
X3523488Y-650747D01*
X3603243Y-619760D02*
G01*
X3608070Y-610362D01*
X3622040Y-596392D01*
X3523488Y-596392D01*
X3319272Y-844042D02*
G01*
X3328670Y-848613D01*
X3338068Y-858012D01*
X3342640Y-867410D01*
X3342640Y-886205D01*
X3338068Y-895604D01*
X3328670Y-905002D01*
X3319272Y-909828D01*
X3305047Y-914400D01*
X3281679Y-914400D01*
X3267709Y-909828D01*
X3258311Y-905002D01*
X3248913Y-895604D01*
X3244088Y-886205D01*
X3244088Y-867410D01*
X3248913Y-858012D01*
X3258311Y-848613D01*
X3267709Y-844042D01*
X3281679Y-844042D01*
X3281679Y-867410D02*
G01*
X3281679Y-844042D01*
X3342640Y-813054D02*
G01*
X3244088Y-813054D01*
X3342640Y-813054D02*
G01*
X3244088Y-747521D01*
X3342640Y-747521D02*
G01*
X3244088Y-747521D01*
X3342640Y-716534D02*
G01*
X3244088Y-716534D01*
X3342640Y-716534D02*
G01*
X3342640Y-683513D01*
X3338068Y-669544D01*
X3328670Y-660145D01*
X3319272Y-655573D01*
X3305047Y-650747D01*
X3281679Y-650747D01*
X3267709Y-655573D01*
X3258311Y-660145D01*
X3248913Y-669544D01*
X3244088Y-683513D01*
X3244088Y-716534D01*
X1833371Y-831342D02*
G01*
X1842770Y-835913D01*
X1852168Y-845312D01*
X1856739Y-854710D01*
X1856739Y-873505D01*
X1852168Y-882904D01*
X1842770Y-892302D01*
X1833371Y-897128D01*
X1819147Y-901700D01*
X1795779Y-901700D01*
X1781810Y-897128D01*
X1772412Y-892302D01*
X1763013Y-882904D01*
X1758187Y-873505D01*
X1758187Y-854710D01*
X1763013Y-845312D01*
X1772412Y-835913D01*
X1781810Y-831342D01*
X1795779Y-831342D01*
X1795779Y-854710D02*
G01*
X1795779Y-831342D01*
X1856739Y-800354D02*
G01*
X1758187Y-800354D01*
X1856739Y-800354D02*
G01*
X1856739Y-758189D01*
X1852168Y-743965D01*
X1847342Y-739394D01*
X1837944Y-734821D01*
X1823973Y-734821D01*
X1814576Y-739394D01*
X1809750Y-743965D01*
X1805178Y-758189D01*
X1805178Y-800354D01*
X1833371Y-699007D02*
G01*
X1837944Y-699007D01*
X1847342Y-694436D01*
X1852168Y-689610D01*
X1856739Y-680212D01*
X1856739Y-661415D01*
X1852168Y-652018D01*
X1847342Y-647445D01*
X1837944Y-642873D01*
X1828545Y-642873D01*
X1819147Y-647445D01*
X1805178Y-656844D01*
X1758187Y-703834D01*
X1758187Y-638047D01*
X1856739Y-583692D02*
G01*
X1852168Y-597662D01*
X1842770Y-602487D01*
X1833371Y-602487D01*
X1823973Y-597662D01*
X1819147Y-588263D01*
X1814576Y-569468D01*
X1809750Y-555497D01*
X1800352Y-546100D01*
X1790954Y-541528D01*
X1776984Y-541528D01*
X1767586Y-546100D01*
X1763013Y-550926D01*
X1758187Y-564895D01*
X1758187Y-583692D01*
X1763013Y-597662D01*
X1767586Y-602487D01*
X1776984Y-607060D01*
X1790954Y-607060D01*
X1800352Y-602487D01*
X1809750Y-593089D01*
X1814576Y-578865D01*
X1819147Y-560323D01*
X1823973Y-550926D01*
X1833371Y-546100D01*
X1842770Y-546100D01*
X1852168Y-550926D01*
X1856739Y-564895D01*
X1856739Y-583692D01*
X1590039Y-876807D02*
G01*
X1491487Y-914400D01*
X1590039Y-876807D02*
G01*
X1491487Y-839470D01*
X1524254Y-900429D02*
G01*
X1524254Y-853439D01*
X1590039Y-808481D02*
G01*
X1491487Y-808481D01*
X1590039Y-808481D02*
G01*
X1590039Y-775462D01*
X1585468Y-761492D01*
X1576070Y-752094D01*
X1566671Y-747521D01*
X1552447Y-742695D01*
X1529079Y-742695D01*
X1515110Y-747521D01*
X1505712Y-752094D01*
X1496313Y-761492D01*
X1491487Y-775462D01*
X1491487Y-808481D01*
X1566671Y-641350D02*
G01*
X1576070Y-646176D01*
X1585468Y-655573D01*
X1590039Y-664718D01*
X1590039Y-683513D01*
X1585468Y-692912D01*
X1576070Y-702310D01*
X1566671Y-707136D01*
X1552447Y-711707D01*
X1529079Y-711707D01*
X1515110Y-707136D01*
X1505712Y-702310D01*
X1496313Y-692912D01*
X1491487Y-683513D01*
X1491487Y-664718D01*
X1496313Y-655573D01*
X1505712Y-646176D01*
X1515110Y-641350D01*
X1458721Y-610362D02*
G01*
X1458721Y-526034D01*
X1590039Y-495045D02*
G01*
X1491487Y-457454D01*
X1590039Y-419862D02*
G01*
X1491487Y-457454D01*
X1590039Y-389128D02*
G01*
X1491487Y-389128D01*
X1590039Y-389128D02*
G01*
X1590039Y-346710D01*
X1585468Y-332739D01*
X1580642Y-327913D01*
X1571244Y-323342D01*
X1561845Y-323342D01*
X1552447Y-327913D01*
X1547876Y-332739D01*
X1543050Y-346710D01*
X1543050Y-389128D01*
X1543050Y-356107D02*
G01*
X1491487Y-323342D01*
X1590039Y-292354D02*
G01*
X1491487Y-292354D01*
X1590039Y-292354D02*
G01*
X1590039Y-231394D01*
X1543050Y-292354D02*
G01*
X1543050Y-254762D01*
X1491487Y-292354D02*
G01*
X1491487Y-231394D01*
X1590039Y-200405D02*
G01*
X1491487Y-200405D01*
X1590039Y-200405D02*
G01*
X1590039Y-139445D01*
X1543050Y-200405D02*
G01*
X1543050Y-162813D01*
X1348739Y-905002D02*
G01*
X1348739Y-853439D01*
X1311147Y-881634D01*
X1311147Y-867410D01*
X1306576Y-858012D01*
X1301750Y-853439D01*
X1287779Y-848613D01*
X1278381Y-848613D01*
X1264412Y-853439D01*
X1255013Y-862837D01*
X1250187Y-876807D01*
X1250187Y-891031D01*
X1255013Y-905002D01*
X1259586Y-909828D01*
X1268984Y-914400D01*
X1348739Y-817879D02*
G01*
X1250187Y-780287D01*
X1348739Y-742695D02*
G01*
X1250187Y-780287D01*
X1348739Y-702310D02*
G01*
X1348739Y-650747D01*
X1311147Y-678942D01*
X1311147Y-664718D01*
X1306576Y-655573D01*
X1301750Y-650747D01*
X1287779Y-646176D01*
X1278381Y-646176D01*
X1264412Y-650747D01*
X1255013Y-660145D01*
X1250187Y-674115D01*
X1250187Y-688339D01*
X1255013Y-702310D01*
X1259586Y-707136D01*
X1268984Y-711707D01*
X1367536Y-582168D02*
G01*
X1358137Y-591565D01*
X1344168Y-600963D01*
X1325371Y-610362D01*
X1301750Y-615187D01*
X1282954Y-615187D01*
X1259586Y-610362D01*
X1240789Y-600963D01*
X1226820Y-591565D01*
X1217421Y-582168D01*
X1348739Y-523239D02*
G01*
X1344168Y-532637D01*
X1334770Y-542036D01*
X1325371Y-546607D01*
X1311147Y-551434D01*
X1287779Y-551434D01*
X1273810Y-546607D01*
X1264412Y-542036D01*
X1255013Y-532637D01*
X1250187Y-523239D01*
X1250187Y-504444D01*
X1255013Y-495045D01*
X1264412Y-485647D01*
X1273810Y-481076D01*
X1287779Y-476250D01*
X1311147Y-476250D01*
X1325371Y-481076D01*
X1334770Y-485647D01*
X1344168Y-495045D01*
X1348739Y-504444D01*
X1348739Y-523239D01*
X1348739Y-445262D02*
G01*
X1278381Y-445262D01*
X1264412Y-440689D01*
X1255013Y-431292D01*
X1250187Y-417068D01*
X1250187Y-407670D01*
X1255013Y-393700D01*
X1264412Y-384302D01*
X1278381Y-379729D01*
X1348739Y-379729D01*
X1348739Y-315721D02*
G01*
X1250187Y-315721D01*
X1348739Y-348742D02*
G01*
X1348739Y-282955D01*
X1367536Y-251968D02*
G01*
X1358137Y-242570D01*
X1344168Y-233171D01*
X1325371Y-223773D01*
X1301750Y-219202D01*
X1282954Y-219202D01*
X1259586Y-223773D01*
X1240789Y-233171D01*
X1226820Y-242570D01*
X1217421Y-251968D01*
X1082039Y-905002D02*
G01*
X1082039Y-853439D01*
X1044447Y-881634D01*
X1044447Y-867410D01*
X1039876Y-858012D01*
X1035050Y-853439D01*
X1021079Y-848613D01*
X1011681Y-848613D01*
X997712Y-853439D01*
X988313Y-862837D01*
X983487Y-876807D01*
X983487Y-891031D01*
X988313Y-905002D01*
X992886Y-909828D01*
X1002284Y-914400D01*
X1082039Y-817879D02*
G01*
X983487Y-780287D01*
X1082039Y-742695D02*
G01*
X983487Y-780287D01*
X1082039Y-702310D02*
G01*
X1082039Y-650747D01*
X1044447Y-678942D01*
X1044447Y-664718D01*
X1039876Y-655573D01*
X1035050Y-650747D01*
X1021079Y-646176D01*
X1011681Y-646176D01*
X997712Y-650747D01*
X988313Y-660145D01*
X983487Y-674115D01*
X983487Y-688339D01*
X988313Y-702310D01*
X992886Y-707136D01*
X1002284Y-711707D01*
X950721Y-615187D02*
G01*
X950721Y-530605D01*
X1082039Y-499618D02*
G01*
X983487Y-499618D01*
X1082039Y-499618D02*
G01*
X1082039Y-438657D01*
X1035050Y-499618D02*
G01*
X1035050Y-462279D01*
X983487Y-499618D02*
G01*
X983487Y-438657D01*
X1082039Y-407670D02*
G01*
X983487Y-407670D01*
X1082039Y-407670D02*
G01*
X983487Y-342137D01*
X1082039Y-342137D02*
G01*
X983487Y-342137D01*
X791971Y-831342D02*
G01*
X801370Y-835913D01*
X810768Y-845312D01*
X815339Y-854710D01*
X815339Y-873505D01*
X810768Y-882904D01*
X801370Y-892302D01*
X791971Y-897128D01*
X777747Y-901700D01*
X754379Y-901700D01*
X740410Y-897128D01*
X731012Y-892302D01*
X721613Y-882904D01*
X716787Y-873505D01*
X716787Y-854710D01*
X721613Y-845312D01*
X731012Y-835913D01*
X740410Y-831342D01*
X754379Y-831342D01*
X754379Y-854710D02*
G01*
X754379Y-831342D01*
X815339Y-800354D02*
G01*
X716787Y-800354D01*
X815339Y-800354D02*
G01*
X716787Y-734821D01*
X815339Y-734821D02*
G01*
X716787Y-734821D01*
X815339Y-703834D02*
G01*
X716787Y-703834D01*
X815339Y-703834D02*
G01*
X815339Y-670813D01*
X810768Y-656844D01*
X801370Y-647445D01*
X791971Y-642873D01*
X777747Y-638047D01*
X754379Y-638047D01*
X740410Y-642873D01*
X731012Y-647445D01*
X721613Y-656844D01*
X716787Y-670813D01*
X716787Y-703834D01*
X574039Y-901700D02*
G01*
X475487Y-864107D01*
X574039Y-826770D02*
G01*
X475487Y-864107D01*
X560070Y-729995D02*
G01*
X569468Y-739394D01*
X574039Y-753363D01*
X574039Y-772160D01*
X569468Y-786384D01*
X560070Y-795781D01*
X550671Y-795781D01*
X541273Y-790955D01*
X536447Y-786384D01*
X531876Y-776986D01*
X522478Y-748792D01*
X517652Y-739394D01*
X513079Y-734821D01*
X503681Y-729995D01*
X489712Y-729995D01*
X480313Y-739394D01*
X475487Y-753363D01*
X475487Y-772160D01*
X480313Y-786384D01*
X489712Y-795781D01*
X574039Y-699007D02*
G01*
X527050Y-661415D01*
X475487Y-661415D01*
X574039Y-624078D02*
G01*
X527050Y-661415D01*
X560070Y-527304D02*
G01*
X569468Y-536702D01*
X574039Y-550926D01*
X574039Y-569468D01*
X569468Y-583692D01*
X560070Y-593089D01*
X550671Y-593089D01*
X541273Y-588263D01*
X536447Y-583692D01*
X531876Y-574294D01*
X522478Y-546100D01*
X517652Y-536702D01*
X513079Y-532129D01*
X503681Y-527304D01*
X489712Y-527304D01*
X480313Y-536702D01*
X475487Y-550926D01*
X475487Y-569468D01*
X480313Y-583692D01*
X489712Y-593089D01*
X332739Y-901700D02*
G01*
X234187Y-864107D01*
X332739Y-826770D02*
G01*
X234187Y-864107D01*
X332739Y-795781D02*
G01*
X234187Y-795781D01*
X332739Y-795781D02*
G01*
X332739Y-753363D01*
X328168Y-739394D01*
X323342Y-734821D01*
X313944Y-729995D01*
X304545Y-729995D01*
X295147Y-734821D01*
X290576Y-739394D01*
X285750Y-753363D01*
X285750Y-795781D02*
G01*
X285750Y-753363D01*
X281178Y-739394D01*
X276352Y-734821D01*
X266954Y-729995D01*
X252984Y-729995D01*
X243586Y-734821D01*
X239013Y-739394D01*
X234187Y-753363D01*
X234187Y-795781D01*
X332739Y-699007D02*
G01*
X262381Y-699007D01*
X248412Y-694436D01*
X239013Y-685037D01*
X234187Y-670813D01*
X234187Y-661415D01*
X239013Y-647445D01*
X248412Y-638047D01*
X262381Y-633476D01*
X332739Y-633476D01*
X318770Y-536702D02*
G01*
X328168Y-546100D01*
X332739Y-560323D01*
X332739Y-578865D01*
X328168Y-593089D01*
X318770Y-602487D01*
X309371Y-602487D01*
X299973Y-597662D01*
X295147Y-593089D01*
X290576Y-583692D01*
X281178Y-555497D01*
X276352Y-546100D01*
X271779Y-541528D01*
X262381Y-536702D01*
X248412Y-536702D01*
X239013Y-546100D01*
X234187Y-560323D01*
X234187Y-578865D01*
X239013Y-593089D01*
X248412Y-602487D01*
X2074672Y-831342D02*
G01*
X2084070Y-835913D01*
X2093468Y-845312D01*
X2098040Y-854710D01*
X2098040Y-873505D01*
X2093468Y-882904D01*
X2084070Y-892302D01*
X2074672Y-897128D01*
X2060447Y-901700D01*
X2037079Y-901700D01*
X2023109Y-897128D01*
X2013711Y-892302D01*
X2004313Y-882904D01*
X1999488Y-873505D01*
X1999488Y-854710D01*
X2004313Y-845312D01*
X2013711Y-835913D01*
X2023109Y-831342D01*
X2037079Y-831342D01*
X2037079Y-854710D02*
G01*
X2037079Y-831342D01*
X2098040Y-800354D02*
G01*
X1999488Y-800354D01*
X2098040Y-800354D02*
G01*
X1999488Y-734821D01*
X2098040Y-734821D02*
G01*
X1999488Y-734821D01*
X2098040Y-703834D02*
G01*
X1999488Y-703834D01*
X2098040Y-703834D02*
G01*
X2098040Y-670813D01*
X2093468Y-656844D01*
X2084070Y-647445D01*
X2074672Y-642873D01*
X2060447Y-638047D01*
X2037079Y-638047D01*
X2023109Y-642873D01*
X2013711Y-647445D01*
X2004313Y-656844D01*
X1999488Y-670813D01*
X1999488Y-703834D01*
X2315972Y-831342D02*
G01*
X2325370Y-835913D01*
X2334768Y-845312D01*
X2339340Y-854710D01*
X2339340Y-873505D01*
X2334768Y-882904D01*
X2325370Y-892302D01*
X2315972Y-897128D01*
X2301747Y-901700D01*
X2278379Y-901700D01*
X2264409Y-897128D01*
X2255011Y-892302D01*
X2245613Y-882904D01*
X2240788Y-873505D01*
X2240788Y-854710D01*
X2245613Y-845312D01*
X2255011Y-835913D01*
X2264409Y-831342D01*
X2278379Y-831342D01*
X2278379Y-854710D02*
G01*
X2278379Y-831342D01*
X2339340Y-800354D02*
G01*
X2240788Y-800354D01*
X2339340Y-800354D02*
G01*
X2339340Y-758189D01*
X2334768Y-743965D01*
X2329941Y-739394D01*
X2320543Y-734821D01*
X2306574Y-734821D01*
X2297175Y-739394D01*
X2292350Y-743965D01*
X2287777Y-758189D01*
X2287777Y-800354D01*
X2315972Y-699007D02*
G01*
X2320543Y-699007D01*
X2329941Y-694436D01*
X2334768Y-689610D01*
X2339340Y-680212D01*
X2339340Y-661415D01*
X2334768Y-652018D01*
X2329941Y-647445D01*
X2320543Y-642873D01*
X2311145Y-642873D01*
X2301747Y-647445D01*
X2287777Y-656844D01*
X2240788Y-703834D01*
X2240788Y-638047D01*
X2339340Y-541528D02*
G01*
X2240788Y-588263D01*
X2339340Y-607060D02*
G01*
X2339340Y-541528D01*
X2569972Y-831342D02*
G01*
X2579370Y-835913D01*
X2588768Y-845312D01*
X2593340Y-854710D01*
X2593340Y-873505D01*
X2588768Y-882904D01*
X2579370Y-892302D01*
X2569972Y-897128D01*
X2555747Y-901700D01*
X2532379Y-901700D01*
X2518409Y-897128D01*
X2509011Y-892302D01*
X2499613Y-882904D01*
X2494788Y-873505D01*
X2494788Y-854710D01*
X2499613Y-845312D01*
X2509011Y-835913D01*
X2518409Y-831342D01*
X2532379Y-831342D01*
X2532379Y-854710D02*
G01*
X2532379Y-831342D01*
X2593340Y-800354D02*
G01*
X2494788Y-800354D01*
X2593340Y-800354D02*
G01*
X2593340Y-758189D01*
X2588768Y-743965D01*
X2583941Y-739394D01*
X2574543Y-734821D01*
X2560574Y-734821D01*
X2551175Y-739394D01*
X2546350Y-743965D01*
X2541777Y-758189D01*
X2541777Y-800354D01*
X2569972Y-699007D02*
G01*
X2574543Y-699007D01*
X2583941Y-694436D01*
X2588768Y-689610D01*
X2593340Y-680212D01*
X2593340Y-661415D01*
X2588768Y-652018D01*
X2583941Y-647445D01*
X2574543Y-642873D01*
X2565145Y-642873D01*
X2555747Y-647445D01*
X2541777Y-656844D01*
X2494788Y-703834D01*
X2494788Y-638047D01*
X2579370Y-550926D02*
G01*
X2588768Y-555497D01*
X2593340Y-569468D01*
X2593340Y-578865D01*
X2588768Y-593089D01*
X2574543Y-602487D01*
X2551175Y-607060D01*
X2527554Y-607060D01*
X2509011Y-602487D01*
X2499613Y-593089D01*
X2494788Y-578865D01*
X2494788Y-574294D01*
X2499613Y-560323D01*
X2509011Y-550926D01*
X2522981Y-546100D01*
X2527554Y-546100D01*
X2541777Y-550926D01*
X2551175Y-560323D01*
X2555747Y-574294D01*
X2555747Y-578865D01*
X2551175Y-593089D01*
X2541777Y-602487D01*
X2527554Y-607060D01*
X2860040Y-914400D02*
G01*
X2761488Y-914400D01*
X2860040Y-914400D02*
G01*
X2860040Y-872236D01*
X2855468Y-858012D01*
X2850641Y-853439D01*
X2841243Y-848613D01*
X2831845Y-848613D01*
X2822447Y-853439D01*
X2817875Y-858012D01*
X2813050Y-872236D01*
X2813050Y-914400D01*
X2813050Y-881634D02*
G01*
X2761488Y-848613D01*
X2860040Y-817879D02*
G01*
X2789681Y-817879D01*
X2775711Y-813054D01*
X2766313Y-803655D01*
X2761488Y-789686D01*
X2761488Y-780287D01*
X2766313Y-766063D01*
X2775711Y-756665D01*
X2789681Y-752094D01*
X2860040Y-752094D01*
X2860040Y-721105D02*
G01*
X2761488Y-721105D01*
X2860040Y-721105D02*
G01*
X2761488Y-655573D01*
X2860040Y-655573D02*
G01*
X2761488Y-655573D01*
X3103372Y-831342D02*
G01*
X3112770Y-835913D01*
X3122168Y-845312D01*
X3126740Y-854710D01*
X3126740Y-873505D01*
X3122168Y-882904D01*
X3112770Y-892302D01*
X3103372Y-897128D01*
X3089147Y-901700D01*
X3065779Y-901700D01*
X3051809Y-897128D01*
X3042411Y-892302D01*
X3033013Y-882904D01*
X3028188Y-873505D01*
X3028188Y-854710D01*
X3033013Y-845312D01*
X3042411Y-835913D01*
X3051809Y-831342D01*
X3065779Y-831342D01*
X3065779Y-854710D02*
G01*
X3065779Y-831342D01*
X3126740Y-800354D02*
G01*
X3028188Y-800354D01*
X3126740Y-800354D02*
G01*
X3126740Y-758189D01*
X3122168Y-743965D01*
X3117341Y-739394D01*
X3107943Y-734821D01*
X3093974Y-734821D01*
X3084575Y-739394D01*
X3079750Y-743965D01*
X3075177Y-758189D01*
X3075177Y-800354D01*
X3103372Y-699007D02*
G01*
X3107943Y-699007D01*
X3117341Y-694436D01*
X3122168Y-689610D01*
X3126740Y-680212D01*
X3126740Y-661415D01*
X3122168Y-652018D01*
X3117341Y-647445D01*
X3107943Y-642873D01*
X3098545Y-642873D01*
X3089147Y-647445D01*
X3075177Y-656844D01*
X3028188Y-703834D01*
X3028188Y-638047D01*
X3103372Y-602487D02*
G01*
X3107943Y-602487D01*
X3117341Y-597662D01*
X3122168Y-593089D01*
X3126740Y-583692D01*
X3126740Y-564895D01*
X3122168Y-555497D01*
X3117341Y-550926D01*
X3107943Y-546100D01*
X3098545Y-546100D01*
X3089147Y-550926D01*
X3075177Y-560323D01*
X3028188Y-607060D01*
X3028188Y-541528D01*
X5135372Y-3396742D02*
G01*
X5144770Y-3401313D01*
X5154168Y-3410712D01*
X5158740Y-3420110D01*
X5158740Y-3438905D01*
X5154168Y-3448304D01*
X5144770Y-3457702D01*
X5135372Y-3462528D01*
X5121147Y-3467100D01*
X5097779Y-3467100D01*
X5083809Y-3462528D01*
X5074411Y-3457702D01*
X5065013Y-3448304D01*
X5060188Y-3438905D01*
X5060188Y-3420110D01*
X5065013Y-3410712D01*
X5074411Y-3401313D01*
X5083809Y-3396742D01*
X5097779Y-3396742D01*
X5097779Y-3420110D02*
G01*
X5097779Y-3396742D01*
X5158740Y-3365754D02*
G01*
X5060188Y-3365754D01*
X5158740Y-3365754D02*
G01*
X5158740Y-3323589D01*
X5154168Y-3309365D01*
X5149341Y-3304794D01*
X5139943Y-3300221D01*
X5125974Y-3300221D01*
X5116575Y-3304794D01*
X5111750Y-3309365D01*
X5107177Y-3323589D01*
X5107177Y-3365754D01*
X5139943Y-3269234D02*
G01*
X5144770Y-3259836D01*
X5158740Y-3245612D01*
X5060188Y-3245612D01*
X5158740Y-3158489D02*
G01*
X5158740Y-3205226D01*
X5116575Y-3210052D01*
X5121147Y-3205226D01*
X5125974Y-3191255D01*
X5125974Y-3177286D01*
X5121147Y-3163062D01*
X5111750Y-3153663D01*
X5097779Y-3149092D01*
X5088381Y-3149092D01*
X5074411Y-3153663D01*
X5065013Y-3163062D01*
X5060188Y-3177286D01*
X5060188Y-3191255D01*
X5065013Y-3205226D01*
X5069586Y-3210052D01*
X5078984Y-3214623D01*
X4881372Y-3396742D02*
G01*
X4890770Y-3401313D01*
X4900168Y-3410712D01*
X4904740Y-3420110D01*
X4904740Y-3438905D01*
X4900168Y-3448304D01*
X4890770Y-3457702D01*
X4881372Y-3462528D01*
X4867147Y-3467100D01*
X4843779Y-3467100D01*
X4829809Y-3462528D01*
X4820411Y-3457702D01*
X4811013Y-3448304D01*
X4806188Y-3438905D01*
X4806188Y-3420110D01*
X4811013Y-3410712D01*
X4820411Y-3401313D01*
X4829809Y-3396742D01*
X4843779Y-3396742D01*
X4843779Y-3420110D02*
G01*
X4843779Y-3396742D01*
X4904740Y-3365754D02*
G01*
X4806188Y-3365754D01*
X4904740Y-3365754D02*
G01*
X4904740Y-3323589D01*
X4900168Y-3309365D01*
X4895341Y-3304794D01*
X4885943Y-3300221D01*
X4871974Y-3300221D01*
X4862575Y-3304794D01*
X4857750Y-3309365D01*
X4853177Y-3323589D01*
X4853177Y-3365754D01*
X4885943Y-3269234D02*
G01*
X4890770Y-3259836D01*
X4904740Y-3245612D01*
X4806188Y-3245612D01*
X4904740Y-3167887D02*
G01*
X4838954Y-3214623D01*
X4838954Y-3144265D01*
X4904740Y-3167887D02*
G01*
X4806188Y-3167887D01*
X4373372Y-3396742D02*
G01*
X4382770Y-3401313D01*
X4392168Y-3410712D01*
X4396740Y-3420110D01*
X4396740Y-3438905D01*
X4392168Y-3448304D01*
X4382770Y-3457702D01*
X4373372Y-3462528D01*
X4359147Y-3467100D01*
X4335779Y-3467100D01*
X4321809Y-3462528D01*
X4312411Y-3457702D01*
X4303013Y-3448304D01*
X4298188Y-3438905D01*
X4298188Y-3420110D01*
X4303013Y-3410712D01*
X4312411Y-3401313D01*
X4321809Y-3396742D01*
X4335779Y-3396742D01*
X4335779Y-3420110D02*
G01*
X4335779Y-3396742D01*
X4396740Y-3365754D02*
G01*
X4298188Y-3365754D01*
X4396740Y-3365754D02*
G01*
X4396740Y-3323589D01*
X4392168Y-3309365D01*
X4387341Y-3304794D01*
X4377943Y-3300221D01*
X4363974Y-3300221D01*
X4354575Y-3304794D01*
X4349750Y-3309365D01*
X4345177Y-3323589D01*
X4345177Y-3365754D01*
X4377943Y-3269234D02*
G01*
X4382770Y-3259836D01*
X4396740Y-3245612D01*
X4298188Y-3245612D01*
X4396740Y-3205226D02*
G01*
X4396740Y-3153663D01*
X4359147Y-3181857D01*
X4359147Y-3167887D01*
X4354575Y-3158489D01*
X4349750Y-3153663D01*
X4335779Y-3149092D01*
X4326381Y-3149092D01*
X4312411Y-3153663D01*
X4303013Y-3163062D01*
X4298188Y-3177286D01*
X4298188Y-3191255D01*
X4303013Y-3205226D01*
X4307586Y-3210052D01*
X4316984Y-3214623D01*
X4614672Y-3396742D02*
G01*
X4624070Y-3401313D01*
X4633468Y-3410712D01*
X4638040Y-3420110D01*
X4638040Y-3438905D01*
X4633468Y-3448304D01*
X4624070Y-3457702D01*
X4614672Y-3462528D01*
X4600447Y-3467100D01*
X4577079Y-3467100D01*
X4563109Y-3462528D01*
X4553711Y-3457702D01*
X4544313Y-3448304D01*
X4539488Y-3438905D01*
X4539488Y-3420110D01*
X4544313Y-3410712D01*
X4553711Y-3401313D01*
X4563109Y-3396742D01*
X4577079Y-3396742D01*
X4577079Y-3420110D02*
G01*
X4577079Y-3396742D01*
X4638040Y-3365754D02*
G01*
X4539488Y-3365754D01*
X4638040Y-3365754D02*
G01*
X4539488Y-3300221D01*
X4638040Y-3300221D02*
G01*
X4539488Y-3300221D01*
X4638040Y-3269234D02*
G01*
X4539488Y-3269234D01*
X4638040Y-3269234D02*
G01*
X4638040Y-3236213D01*
X4633468Y-3222244D01*
X4624070Y-3212845D01*
X4614672Y-3208273D01*
X4600447Y-3203447D01*
X4577079Y-3203447D01*
X4563109Y-3208273D01*
X4553711Y-3212845D01*
X4544313Y-3222244D01*
X4539488Y-3236213D01*
X4539488Y-3269234D01*
X4106672Y-3396742D02*
G01*
X4116070Y-3401313D01*
X4125468Y-3410712D01*
X4130040Y-3420110D01*
X4130040Y-3438905D01*
X4125468Y-3448304D01*
X4116070Y-3457702D01*
X4106672Y-3462528D01*
X4092447Y-3467100D01*
X4069079Y-3467100D01*
X4055109Y-3462528D01*
X4045711Y-3457702D01*
X4036313Y-3448304D01*
X4031488Y-3438905D01*
X4031488Y-3420110D01*
X4036313Y-3410712D01*
X4045711Y-3401313D01*
X4055109Y-3396742D01*
X4069079Y-3396742D01*
X4069079Y-3420110D02*
G01*
X4069079Y-3396742D01*
X4130040Y-3365754D02*
G01*
X4031488Y-3365754D01*
X4130040Y-3365754D02*
G01*
X4130040Y-3323589D01*
X4125468Y-3309365D01*
X4120641Y-3304794D01*
X4111243Y-3300221D01*
X4097274Y-3300221D01*
X4087875Y-3304794D01*
X4083050Y-3309365D01*
X4078477Y-3323589D01*
X4078477Y-3365754D01*
X4111243Y-3269234D02*
G01*
X4116070Y-3259836D01*
X4130040Y-3245612D01*
X4031488Y-3245612D01*
X4106672Y-3210052D02*
G01*
X4111243Y-3210052D01*
X4120641Y-3205226D01*
X4125468Y-3200654D01*
X4130040Y-3191255D01*
X4130040Y-3172460D01*
X4125468Y-3163062D01*
X4120641Y-3158489D01*
X4111243Y-3153663D01*
X4101845Y-3153663D01*
X4092447Y-3158489D01*
X4078477Y-3167887D01*
X4031488Y-3214623D01*
X4031488Y-3149092D01*
X3865372Y-3396742D02*
G01*
X3874770Y-3401313D01*
X3884168Y-3410712D01*
X3888740Y-3420110D01*
X3888740Y-3438905D01*
X3884168Y-3448304D01*
X3874770Y-3457702D01*
X3865372Y-3462528D01*
X3851147Y-3467100D01*
X3827779Y-3467100D01*
X3813809Y-3462528D01*
X3804411Y-3457702D01*
X3795013Y-3448304D01*
X3790188Y-3438905D01*
X3790188Y-3420110D01*
X3795013Y-3410712D01*
X3804411Y-3401313D01*
X3813809Y-3396742D01*
X3827779Y-3396742D01*
X3827779Y-3420110D02*
G01*
X3827779Y-3396742D01*
X3888740Y-3365754D02*
G01*
X3790188Y-3365754D01*
X3888740Y-3365754D02*
G01*
X3888740Y-3323589D01*
X3884168Y-3309365D01*
X3879341Y-3304794D01*
X3869943Y-3300221D01*
X3855974Y-3300221D01*
X3846575Y-3304794D01*
X3841750Y-3309365D01*
X3837177Y-3323589D01*
X3837177Y-3365754D01*
X3869943Y-3269234D02*
G01*
X3874770Y-3259836D01*
X3888740Y-3245612D01*
X3790188Y-3245612D01*
X3869943Y-3214623D02*
G01*
X3874770Y-3205226D01*
X3888740Y-3191255D01*
X3790188Y-3191255D01*
X3611372Y-3396742D02*
G01*
X3620770Y-3401313D01*
X3630168Y-3410712D01*
X3634740Y-3420110D01*
X3634740Y-3438905D01*
X3630168Y-3448304D01*
X3620770Y-3457702D01*
X3611372Y-3462528D01*
X3597147Y-3467100D01*
X3573779Y-3467100D01*
X3559809Y-3462528D01*
X3550411Y-3457702D01*
X3541013Y-3448304D01*
X3536188Y-3438905D01*
X3536188Y-3420110D01*
X3541013Y-3410712D01*
X3550411Y-3401313D01*
X3559809Y-3396742D01*
X3573779Y-3396742D01*
X3573779Y-3420110D02*
G01*
X3573779Y-3396742D01*
X3634740Y-3365754D02*
G01*
X3536188Y-3365754D01*
X3634740Y-3365754D02*
G01*
X3634740Y-3323589D01*
X3630168Y-3309365D01*
X3625341Y-3304794D01*
X3615943Y-3300221D01*
X3601974Y-3300221D01*
X3592575Y-3304794D01*
X3587750Y-3309365D01*
X3583177Y-3323589D01*
X3583177Y-3365754D01*
X3615943Y-3269234D02*
G01*
X3620770Y-3259836D01*
X3634740Y-3245612D01*
X3536188Y-3245612D01*
X3634740Y-3186684D02*
G01*
X3630168Y-3200654D01*
X3615943Y-3210052D01*
X3592575Y-3214623D01*
X3578352Y-3214623D01*
X3554984Y-3210052D01*
X3541013Y-3200654D01*
X3536188Y-3186684D01*
X3536188Y-3177286D01*
X3541013Y-3163062D01*
X3554984Y-3153663D01*
X3578352Y-3149092D01*
X3592575Y-3149092D01*
X3615943Y-3153663D01*
X3630168Y-3163062D01*
X3634740Y-3177286D01*
X3634740Y-3186684D01*
X3344672Y-3396742D02*
G01*
X3354070Y-3401313D01*
X3363468Y-3410712D01*
X3368040Y-3420110D01*
X3368040Y-3438905D01*
X3363468Y-3448304D01*
X3354070Y-3457702D01*
X3344672Y-3462528D01*
X3330447Y-3467100D01*
X3307079Y-3467100D01*
X3293109Y-3462528D01*
X3283711Y-3457702D01*
X3274313Y-3448304D01*
X3269488Y-3438905D01*
X3269488Y-3420110D01*
X3274313Y-3410712D01*
X3283711Y-3401313D01*
X3293109Y-3396742D01*
X3307079Y-3396742D01*
X3307079Y-3420110D02*
G01*
X3307079Y-3396742D01*
X3368040Y-3365754D02*
G01*
X3269488Y-3365754D01*
X3368040Y-3365754D02*
G01*
X3269488Y-3300221D01*
X3368040Y-3300221D02*
G01*
X3269488Y-3300221D01*
X3368040Y-3269234D02*
G01*
X3269488Y-3269234D01*
X3368040Y-3269234D02*
G01*
X3368040Y-3236213D01*
X3363468Y-3222244D01*
X3354070Y-3212845D01*
X3344672Y-3208273D01*
X3330447Y-3203447D01*
X3307079Y-3203447D01*
X3293109Y-3208273D01*
X3283711Y-3212845D01*
X3274313Y-3222244D01*
X3269488Y-3236213D01*
X3269488Y-3269234D01*
X3103372Y-3396742D02*
G01*
X3112770Y-3401313D01*
X3122168Y-3410712D01*
X3126740Y-3420110D01*
X3126740Y-3438905D01*
X3122168Y-3448304D01*
X3112770Y-3457702D01*
X3103372Y-3462528D01*
X3089147Y-3467100D01*
X3065779Y-3467100D01*
X3051809Y-3462528D01*
X3042411Y-3457702D01*
X3033013Y-3448304D01*
X3028188Y-3438905D01*
X3028188Y-3420110D01*
X3033013Y-3410712D01*
X3042411Y-3401313D01*
X3051809Y-3396742D01*
X3065779Y-3396742D01*
X3065779Y-3420110D02*
G01*
X3065779Y-3396742D01*
X3126740Y-3365754D02*
G01*
X3028188Y-3365754D01*
X3126740Y-3365754D02*
G01*
X3126740Y-3323589D01*
X3122168Y-3309365D01*
X3117341Y-3304794D01*
X3107943Y-3300221D01*
X3093974Y-3300221D01*
X3084575Y-3304794D01*
X3079750Y-3309365D01*
X3075177Y-3323589D01*
X3075177Y-3365754D01*
X3093974Y-3208273D02*
G01*
X3079750Y-3212845D01*
X3070352Y-3222244D01*
X3065779Y-3236213D01*
X3065779Y-3241039D01*
X3070352Y-3255010D01*
X3079750Y-3264407D01*
X3093974Y-3269234D01*
X3098545Y-3269234D01*
X3112770Y-3264407D01*
X3122168Y-3255010D01*
X3126740Y-3241039D01*
X3126740Y-3236213D01*
X3122168Y-3222244D01*
X3112770Y-3212845D01*
X3093974Y-3208273D01*
X3070352Y-3208273D01*
X3046984Y-3212845D01*
X3033013Y-3222244D01*
X3028188Y-3236213D01*
X3028188Y-3245612D01*
X3033013Y-3259836D01*
X3042411Y-3264407D01*
X2836672Y-3396742D02*
G01*
X2846070Y-3401313D01*
X2855468Y-3410712D01*
X2860040Y-3420110D01*
X2860040Y-3438905D01*
X2855468Y-3448304D01*
X2846070Y-3457702D01*
X2836672Y-3462528D01*
X2822447Y-3467100D01*
X2799079Y-3467100D01*
X2785109Y-3462528D01*
X2775711Y-3457702D01*
X2766313Y-3448304D01*
X2761488Y-3438905D01*
X2761488Y-3420110D01*
X2766313Y-3410712D01*
X2775711Y-3401313D01*
X2785109Y-3396742D01*
X2799079Y-3396742D01*
X2799079Y-3420110D02*
G01*
X2799079Y-3396742D01*
X2860040Y-3365754D02*
G01*
X2761488Y-3365754D01*
X2860040Y-3365754D02*
G01*
X2860040Y-3323589D01*
X2855468Y-3309365D01*
X2850641Y-3304794D01*
X2841243Y-3300221D01*
X2827274Y-3300221D01*
X2817875Y-3304794D01*
X2813050Y-3309365D01*
X2808477Y-3323589D01*
X2808477Y-3365754D01*
X2860040Y-3245612D02*
G01*
X2855468Y-3259836D01*
X2846070Y-3264407D01*
X2836672Y-3264407D01*
X2827274Y-3259836D01*
X2822447Y-3250437D01*
X2817875Y-3231642D01*
X2813050Y-3217418D01*
X2803652Y-3208273D01*
X2794254Y-3203447D01*
X2780284Y-3203447D01*
X2770886Y-3208273D01*
X2766313Y-3212845D01*
X2761488Y-3226815D01*
X2761488Y-3245612D01*
X2766313Y-3259836D01*
X2770886Y-3264407D01*
X2780284Y-3269234D01*
X2794254Y-3269234D01*
X2803652Y-3264407D01*
X2813050Y-3255010D01*
X2817875Y-3241039D01*
X2822447Y-3222244D01*
X2827274Y-3212845D01*
X2836672Y-3208273D01*
X2846070Y-3208273D01*
X2855468Y-3212845D01*
X2860040Y-3226815D01*
X2860040Y-3245612D01*
X2595372Y-3396742D02*
G01*
X2604770Y-3401313D01*
X2614168Y-3410712D01*
X2618740Y-3420110D01*
X2618740Y-3438905D01*
X2614168Y-3448304D01*
X2604770Y-3457702D01*
X2595372Y-3462528D01*
X2581147Y-3467100D01*
X2557779Y-3467100D01*
X2543809Y-3462528D01*
X2534411Y-3457702D01*
X2525013Y-3448304D01*
X2520188Y-3438905D01*
X2520188Y-3420110D01*
X2525013Y-3410712D01*
X2534411Y-3401313D01*
X2543809Y-3396742D01*
X2557779Y-3396742D01*
X2557779Y-3420110D02*
G01*
X2557779Y-3396742D01*
X2618740Y-3365754D02*
G01*
X2520188Y-3365754D01*
X2618740Y-3365754D02*
G01*
X2618740Y-3323589D01*
X2614168Y-3309365D01*
X2609341Y-3304794D01*
X2599943Y-3300221D01*
X2585974Y-3300221D01*
X2576575Y-3304794D01*
X2571750Y-3309365D01*
X2567177Y-3323589D01*
X2567177Y-3365754D01*
X2618740Y-3203447D02*
G01*
X2520188Y-3250437D01*
X2618740Y-3269234D02*
G01*
X2618740Y-3203447D01*
X2328672Y-3396742D02*
G01*
X2338070Y-3401313D01*
X2347468Y-3410712D01*
X2352040Y-3420110D01*
X2352040Y-3438905D01*
X2347468Y-3448304D01*
X2338070Y-3457702D01*
X2328672Y-3462528D01*
X2314447Y-3467100D01*
X2291079Y-3467100D01*
X2277109Y-3462528D01*
X2267711Y-3457702D01*
X2258313Y-3448304D01*
X2253488Y-3438905D01*
X2253488Y-3420110D01*
X2258313Y-3410712D01*
X2267711Y-3401313D01*
X2277109Y-3396742D01*
X2291079Y-3396742D01*
X2291079Y-3420110D02*
G01*
X2291079Y-3396742D01*
X2352040Y-3365754D02*
G01*
X2253488Y-3365754D01*
X2352040Y-3365754D02*
G01*
X2352040Y-3323589D01*
X2347468Y-3309365D01*
X2342641Y-3304794D01*
X2333243Y-3300221D01*
X2319274Y-3300221D01*
X2309875Y-3304794D01*
X2305050Y-3309365D01*
X2300477Y-3323589D01*
X2300477Y-3365754D01*
X2338070Y-3212845D02*
G01*
X2347468Y-3217418D01*
X2352040Y-3231642D01*
X2352040Y-3241039D01*
X2347468Y-3255010D01*
X2333243Y-3264407D01*
X2309875Y-3269234D01*
X2286254Y-3269234D01*
X2267711Y-3264407D01*
X2258313Y-3255010D01*
X2253488Y-3241039D01*
X2253488Y-3236213D01*
X2258313Y-3222244D01*
X2267711Y-3212845D01*
X2281681Y-3208273D01*
X2286254Y-3208273D01*
X2300477Y-3212845D01*
X2309875Y-3222244D01*
X2314447Y-3236213D01*
X2314447Y-3241039D01*
X2309875Y-3255010D01*
X2300477Y-3264407D01*
X2286254Y-3269234D01*
X2074672Y-3396742D02*
G01*
X2084070Y-3401313D01*
X2093468Y-3410712D01*
X2098040Y-3420110D01*
X2098040Y-3438905D01*
X2093468Y-3448304D01*
X2084070Y-3457702D01*
X2074672Y-3462528D01*
X2060447Y-3467100D01*
X2037079Y-3467100D01*
X2023109Y-3462528D01*
X2013711Y-3457702D01*
X2004313Y-3448304D01*
X1999488Y-3438905D01*
X1999488Y-3420110D01*
X2004313Y-3410712D01*
X2013711Y-3401313D01*
X2023109Y-3396742D01*
X2037079Y-3396742D01*
X2037079Y-3420110D02*
G01*
X2037079Y-3396742D01*
X2098040Y-3365754D02*
G01*
X1999488Y-3365754D01*
X2098040Y-3365754D02*
G01*
X1999488Y-3300221D01*
X2098040Y-3300221D02*
G01*
X1999488Y-3300221D01*
X2098040Y-3269234D02*
G01*
X1999488Y-3269234D01*
X2098040Y-3269234D02*
G01*
X2098040Y-3236213D01*
X2093468Y-3222244D01*
X2084070Y-3212845D01*
X2074672Y-3208273D01*
X2060447Y-3203447D01*
X2037079Y-3203447D01*
X2023109Y-3208273D01*
X2013711Y-3212845D01*
X2004313Y-3222244D01*
X1999488Y-3236213D01*
X1999488Y-3269234D01*
X1820671Y-3396742D02*
G01*
X1830070Y-3401313D01*
X1839468Y-3410712D01*
X1844039Y-3420110D01*
X1844039Y-3438905D01*
X1839468Y-3448304D01*
X1830070Y-3457702D01*
X1820671Y-3462528D01*
X1806447Y-3467100D01*
X1783079Y-3467100D01*
X1769110Y-3462528D01*
X1759712Y-3457702D01*
X1750313Y-3448304D01*
X1745487Y-3438905D01*
X1745487Y-3420110D01*
X1750313Y-3410712D01*
X1759712Y-3401313D01*
X1769110Y-3396742D01*
X1783079Y-3396742D01*
X1783079Y-3420110D02*
G01*
X1783079Y-3396742D01*
X1844039Y-3365754D02*
G01*
X1745487Y-3365754D01*
X1844039Y-3365754D02*
G01*
X1844039Y-3323589D01*
X1839468Y-3309365D01*
X1834642Y-3304794D01*
X1825244Y-3300221D01*
X1811273Y-3300221D01*
X1801876Y-3304794D01*
X1797050Y-3309365D01*
X1792478Y-3323589D01*
X1792478Y-3365754D01*
X1844039Y-3212845D02*
G01*
X1844039Y-3259836D01*
X1801876Y-3264407D01*
X1806447Y-3259836D01*
X1811273Y-3245612D01*
X1811273Y-3231642D01*
X1806447Y-3217418D01*
X1797050Y-3208273D01*
X1783079Y-3203447D01*
X1773681Y-3203447D01*
X1759712Y-3208273D01*
X1750313Y-3217418D01*
X1745487Y-3231642D01*
X1745487Y-3245612D01*
X1750313Y-3259836D01*
X1754886Y-3264407D01*
X1764284Y-3269234D01*
X1579371Y-3396742D02*
G01*
X1588770Y-3401313D01*
X1598168Y-3410712D01*
X1602739Y-3420110D01*
X1602739Y-3438905D01*
X1598168Y-3448304D01*
X1588770Y-3457702D01*
X1579371Y-3462528D01*
X1565147Y-3467100D01*
X1541779Y-3467100D01*
X1527810Y-3462528D01*
X1518412Y-3457702D01*
X1509013Y-3448304D01*
X1504187Y-3438905D01*
X1504187Y-3420110D01*
X1509013Y-3410712D01*
X1518412Y-3401313D01*
X1527810Y-3396742D01*
X1541779Y-3396742D01*
X1541779Y-3420110D02*
G01*
X1541779Y-3396742D01*
X1602739Y-3365754D02*
G01*
X1504187Y-3365754D01*
X1602739Y-3365754D02*
G01*
X1602739Y-3323589D01*
X1598168Y-3309365D01*
X1593342Y-3304794D01*
X1583944Y-3300221D01*
X1569973Y-3300221D01*
X1560576Y-3304794D01*
X1555750Y-3309365D01*
X1551178Y-3323589D01*
X1551178Y-3365754D01*
X1602739Y-3222244D02*
G01*
X1536954Y-3269234D01*
X1536954Y-3198876D01*
X1602739Y-3222244D02*
G01*
X1504187Y-3222244D01*
X1312671Y-3396742D02*
G01*
X1322070Y-3401313D01*
X1331468Y-3410712D01*
X1336039Y-3420110D01*
X1336039Y-3438905D01*
X1331468Y-3448304D01*
X1322070Y-3457702D01*
X1312671Y-3462528D01*
X1298447Y-3467100D01*
X1275079Y-3467100D01*
X1261110Y-3462528D01*
X1251712Y-3457702D01*
X1242313Y-3448304D01*
X1237487Y-3438905D01*
X1237487Y-3420110D01*
X1242313Y-3410712D01*
X1251712Y-3401313D01*
X1261110Y-3396742D01*
X1275079Y-3396742D01*
X1275079Y-3420110D02*
G01*
X1275079Y-3396742D01*
X1336039Y-3365754D02*
G01*
X1237487Y-3365754D01*
X1336039Y-3365754D02*
G01*
X1336039Y-3323589D01*
X1331468Y-3309365D01*
X1326642Y-3304794D01*
X1317244Y-3300221D01*
X1303273Y-3300221D01*
X1293876Y-3304794D01*
X1289050Y-3309365D01*
X1284478Y-3323589D01*
X1284478Y-3365754D01*
X1336039Y-3259836D02*
G01*
X1336039Y-3208273D01*
X1298447Y-3236213D01*
X1298447Y-3222244D01*
X1293876Y-3212845D01*
X1289050Y-3208273D01*
X1275079Y-3203447D01*
X1265681Y-3203447D01*
X1251712Y-3208273D01*
X1242313Y-3217418D01*
X1237487Y-3231642D01*
X1237487Y-3245612D01*
X1242313Y-3259836D01*
X1246886Y-3264407D01*
X1256284Y-3269234D01*
X1071371Y-3396742D02*
G01*
X1080770Y-3401313D01*
X1090168Y-3410712D01*
X1094739Y-3420110D01*
X1094739Y-3438905D01*
X1090168Y-3448304D01*
X1080770Y-3457702D01*
X1071371Y-3462528D01*
X1057147Y-3467100D01*
X1033779Y-3467100D01*
X1019810Y-3462528D01*
X1010412Y-3457702D01*
X1001013Y-3448304D01*
X996187Y-3438905D01*
X996187Y-3420110D01*
X1001013Y-3410712D01*
X1010412Y-3401313D01*
X1019810Y-3396742D01*
X1033779Y-3396742D01*
X1033779Y-3420110D02*
G01*
X1033779Y-3396742D01*
X1094739Y-3365754D02*
G01*
X996187Y-3365754D01*
X1094739Y-3365754D02*
G01*
X1094739Y-3323589D01*
X1090168Y-3309365D01*
X1085342Y-3304794D01*
X1075944Y-3300221D01*
X1061973Y-3300221D01*
X1052576Y-3304794D01*
X1047750Y-3309365D01*
X1043178Y-3323589D01*
X1043178Y-3365754D01*
X1071371Y-3264407D02*
G01*
X1075944Y-3264407D01*
X1085342Y-3259836D01*
X1090168Y-3255010D01*
X1094739Y-3245612D01*
X1094739Y-3226815D01*
X1090168Y-3217418D01*
X1085342Y-3212845D01*
X1075944Y-3208273D01*
X1066545Y-3208273D01*
X1057147Y-3212845D01*
X1043178Y-3222244D01*
X996187Y-3269234D01*
X996187Y-3203447D01*
X817371Y-3396742D02*
G01*
X826770Y-3401313D01*
X836168Y-3410712D01*
X840739Y-3420110D01*
X840739Y-3438905D01*
X836168Y-3448304D01*
X826770Y-3457702D01*
X817371Y-3462528D01*
X803147Y-3467100D01*
X779779Y-3467100D01*
X765810Y-3462528D01*
X756412Y-3457702D01*
X747013Y-3448304D01*
X742187Y-3438905D01*
X742187Y-3420110D01*
X747013Y-3410712D01*
X756412Y-3401313D01*
X765810Y-3396742D01*
X779779Y-3396742D01*
X779779Y-3420110D02*
G01*
X779779Y-3396742D01*
X840739Y-3365754D02*
G01*
X742187Y-3365754D01*
X840739Y-3365754D02*
G01*
X742187Y-3300221D01*
X840739Y-3300221D02*
G01*
X742187Y-3300221D01*
X840739Y-3269234D02*
G01*
X742187Y-3269234D01*
X840739Y-3269234D02*
G01*
X840739Y-3236213D01*
X836168Y-3222244D01*
X826770Y-3212845D01*
X817371Y-3208273D01*
X803147Y-3203447D01*
X779779Y-3203447D01*
X765810Y-3208273D01*
X756412Y-3212845D01*
X747013Y-3222244D01*
X742187Y-3236213D01*
X742187Y-3269234D01*
X550671Y-3396742D02*
G01*
X560070Y-3401313D01*
X569468Y-3410712D01*
X574039Y-3420110D01*
X574039Y-3438905D01*
X569468Y-3448304D01*
X560070Y-3457702D01*
X550671Y-3462528D01*
X536447Y-3467100D01*
X513079Y-3467100D01*
X499110Y-3462528D01*
X489712Y-3457702D01*
X480313Y-3448304D01*
X475487Y-3438905D01*
X475487Y-3420110D01*
X480313Y-3410712D01*
X489712Y-3401313D01*
X499110Y-3396742D01*
X513079Y-3396742D01*
X513079Y-3420110D02*
G01*
X513079Y-3396742D01*
X574039Y-3365754D02*
G01*
X475487Y-3365754D01*
X574039Y-3365754D02*
G01*
X574039Y-3323589D01*
X569468Y-3309365D01*
X564642Y-3304794D01*
X555244Y-3300221D01*
X541273Y-3300221D01*
X531876Y-3304794D01*
X527050Y-3309365D01*
X522478Y-3323589D01*
X522478Y-3365754D01*
X555244Y-3269234D02*
G01*
X560070Y-3259836D01*
X574039Y-3245612D01*
X475487Y-3245612D01*
X309371Y-3396742D02*
G01*
X318770Y-3401313D01*
X328168Y-3410712D01*
X332739Y-3420110D01*
X332739Y-3438905D01*
X328168Y-3448304D01*
X318770Y-3457702D01*
X309371Y-3462528D01*
X295147Y-3467100D01*
X271779Y-3467100D01*
X257810Y-3462528D01*
X248412Y-3457702D01*
X239013Y-3448304D01*
X234187Y-3438905D01*
X234187Y-3420110D01*
X239013Y-3410712D01*
X248412Y-3401313D01*
X257810Y-3396742D01*
X271779Y-3396742D01*
X271779Y-3420110D02*
G01*
X271779Y-3396742D01*
X332739Y-3365754D02*
G01*
X234187Y-3365754D01*
X332739Y-3365754D02*
G01*
X332739Y-3323589D01*
X328168Y-3309365D01*
X323342Y-3304794D01*
X313944Y-3300221D01*
X299973Y-3300221D01*
X290576Y-3304794D01*
X285750Y-3309365D01*
X281178Y-3323589D01*
X281178Y-3365754D01*
X332739Y-3241039D02*
G01*
X328168Y-3255010D01*
X313944Y-3264407D01*
X290576Y-3269234D01*
X276352Y-3269234D01*
X252984Y-3264407D01*
X239013Y-3255010D01*
X234187Y-3241039D01*
X234187Y-3231642D01*
X239013Y-3217418D01*
X252984Y-3208273D01*
X276352Y-3203447D01*
X290576Y-3203447D01*
X313944Y-3208273D01*
X328168Y-3217418D01*
X332739Y-3231642D01*
X332739Y-3241039D01*
X3731513Y-1421129D02*
G01*
X3740911Y-1411731D01*
X3755136Y-1407160D01*
X3773931Y-1407160D01*
X3787902Y-1411731D01*
X3797300Y-1421129D01*
X3797300Y-1430528D01*
X3792727Y-1439926D01*
X3787902Y-1444752D01*
X3778504Y-1449323D01*
X3750309Y-1458721D01*
X3740911Y-1463547D01*
X3736340Y-1468120D01*
X3731513Y-1477518D01*
X3731513Y-1491487D01*
X3740911Y-1500886D01*
X3755136Y-1505712D01*
X3773931Y-1505712D01*
X3787902Y-1500886D01*
X3797300Y-1491487D01*
X3700779Y-1407160D02*
G01*
X3677158Y-1505712D01*
X3653790Y-1407160D02*
G01*
X3677158Y-1505712D01*
X3653790Y-1407160D02*
G01*
X3630422Y-1505712D01*
X3606800Y-1407160D02*
G01*
X3630422Y-1505712D01*
X3575811Y-1407160D02*
G01*
X3575811Y-1505712D01*
X3575811Y-1407160D02*
G01*
X3543045Y-1407160D01*
X3529075Y-1411731D01*
X3519677Y-1421129D01*
X3514852Y-1430528D01*
X3510279Y-1444752D01*
X3510279Y-1468120D01*
X3514852Y-1482089D01*
X3519677Y-1491487D01*
X3529075Y-1500886D01*
X3543045Y-1505712D01*
X3575811Y-1505712D01*
X3479291Y-1407160D02*
G01*
X3479291Y-1505712D01*
X3420109Y-1407160D02*
G01*
X3429508Y-1411731D01*
X3438906Y-1421129D01*
X3443731Y-1430528D01*
X3448304Y-1444752D01*
X3448304Y-1468120D01*
X3443731Y-1482089D01*
X3438906Y-1491487D01*
X3429508Y-1500886D01*
X3420109Y-1505712D01*
X3401313Y-1505712D01*
X3391915Y-1500886D01*
X3382518Y-1491487D01*
X3377945Y-1482089D01*
X3373120Y-1468120D01*
X3373120Y-1444752D01*
X3377945Y-1430528D01*
X3382518Y-1421129D01*
X3391915Y-1411731D01*
X3401313Y-1407160D01*
X3420109Y-1407160D01*
X3587241Y-1697228D02*
G01*
X3591813Y-1687829D01*
X3601211Y-1678431D01*
X3610609Y-1673860D01*
X3629406Y-1673860D01*
X3638804Y-1678431D01*
X3648202Y-1687829D01*
X3653027Y-1697228D01*
X3657600Y-1711452D01*
X3657600Y-1734820D01*
X3653027Y-1748789D01*
X3648202Y-1758187D01*
X3638804Y-1767586D01*
X3629406Y-1772412D01*
X3610609Y-1772412D01*
X3601211Y-1767586D01*
X3591813Y-1758187D01*
X3587241Y-1748789D01*
X3587241Y-1734820D01*
X3610609Y-1734820D02*
G01*
X3587241Y-1734820D01*
X3556254Y-1673860D02*
G01*
X3556254Y-1772412D01*
X3556254Y-1673860D02*
G01*
X3490722Y-1772412D01*
X3490722Y-1673860D02*
G01*
X3490722Y-1772412D01*
X3459734Y-1673860D02*
G01*
X3459734Y-1772412D01*
X3459734Y-1673860D02*
G01*
X3426713Y-1673860D01*
X3412743Y-1678431D01*
X3403345Y-1687829D01*
X3398774Y-1697228D01*
X3393947Y-1711452D01*
X3393947Y-1734820D01*
X3398774Y-1748789D01*
X3403345Y-1758187D01*
X3412743Y-1767586D01*
X3426713Y-1772412D01*
X3459734Y-1772412D01*
X3807713Y-1929129D02*
G01*
X3817111Y-1919731D01*
X3831336Y-1915160D01*
X3850131Y-1915160D01*
X3864102Y-1919731D01*
X3873500Y-1929129D01*
X3873500Y-1938528D01*
X3868927Y-1947926D01*
X3864102Y-1952752D01*
X3854704Y-1957323D01*
X3826509Y-1966721D01*
X3817111Y-1971547D01*
X3812540Y-1976120D01*
X3807713Y-1985518D01*
X3807713Y-1999487D01*
X3817111Y-2008886D01*
X3831336Y-2013712D01*
X3850131Y-2013712D01*
X3864102Y-2008886D01*
X3873500Y-1999487D01*
X3776979Y-1915160D02*
G01*
X3753358Y-2013712D01*
X3729990Y-1915160D02*
G01*
X3753358Y-2013712D01*
X3729990Y-1915160D02*
G01*
X3706622Y-2013712D01*
X3683000Y-1915160D02*
G01*
X3706622Y-2013712D01*
X3581654Y-1938528D02*
G01*
X3586479Y-1929129D01*
X3595877Y-1919731D01*
X3605275Y-1915160D01*
X3623818Y-1915160D01*
X3633215Y-1919731D01*
X3642613Y-1929129D01*
X3647440Y-1938528D01*
X3652011Y-1952752D01*
X3652011Y-1976120D01*
X3647440Y-1990089D01*
X3642613Y-1999487D01*
X3633215Y-2008886D01*
X3623818Y-2013712D01*
X3605275Y-2013712D01*
X3595877Y-2008886D01*
X3586479Y-1999487D01*
X3581654Y-1990089D01*
X3550665Y-1915160D02*
G01*
X3550665Y-2013712D01*
X3550665Y-2013712D02*
G01*
X3494531Y-2013712D01*
X3463543Y-1915160D02*
G01*
X3463543Y-2013712D01*
X3397758Y-1915160D02*
G01*
X3463543Y-1980945D01*
X3440175Y-1957323D02*
G01*
X3397758Y-2013712D01*
X2933700Y-1965960D02*
G01*
X2933700Y-2064512D01*
X2933700Y-1965960D02*
G01*
X2891536Y-1965960D01*
X2877311Y-1970531D01*
X2872740Y-1975357D01*
X2867913Y-1984755D01*
X2867913Y-1994154D01*
X2872740Y-2003552D01*
X2877311Y-2008123D01*
X2891536Y-2012950D01*
X2933700Y-2012950D01*
X2900934Y-2012950D02*
G01*
X2867913Y-2064512D01*
X2780791Y-1998726D02*
G01*
X2780791Y-2064512D01*
X2780791Y-2012950D02*
G01*
X2790190Y-2003552D01*
X2799588Y-1998726D01*
X2813558Y-1998726D01*
X2822956Y-2003552D01*
X2832354Y-2012950D01*
X2837179Y-2026920D01*
X2837179Y-2036318D01*
X2832354Y-2050287D01*
X2822956Y-2059686D01*
X2813558Y-2064512D01*
X2799588Y-2064512D01*
X2790190Y-2059686D01*
X2780791Y-2050287D01*
X2698241Y-2012950D02*
G01*
X2702813Y-2003552D01*
X2717038Y-1998726D01*
X2731008Y-1998726D01*
X2745231Y-2003552D01*
X2749804Y-2012950D01*
X2745231Y-2022347D01*
X2735834Y-2026920D01*
X2712211Y-2031745D01*
X2702813Y-2036318D01*
X2698241Y-2045715D01*
X2698241Y-2050287D01*
X2702813Y-2059686D01*
X2717038Y-2064512D01*
X2731008Y-2064512D01*
X2745231Y-2059686D01*
X2749804Y-2050287D01*
X2667254Y-1998726D02*
G01*
X2667254Y-2097278D01*
X2667254Y-2012950D02*
G01*
X2657856Y-2003552D01*
X2648458Y-1998726D01*
X2634488Y-1998726D01*
X2625090Y-2003552D01*
X2615691Y-2012950D01*
X2610865Y-2026920D01*
X2610865Y-2036318D01*
X2615691Y-2050287D01*
X2625090Y-2059686D01*
X2634488Y-2064512D01*
X2648458Y-2064512D01*
X2657856Y-2059686D01*
X2667254Y-2050287D01*
X2579877Y-1965960D02*
G01*
X2579877Y-2064512D01*
X2579877Y-2012950D02*
G01*
X2570734Y-2003552D01*
X2561336Y-1998726D01*
X2547111Y-1998726D01*
X2537713Y-2003552D01*
X2528315Y-2012950D01*
X2523743Y-2026920D01*
X2523743Y-2036318D01*
X2528315Y-2050287D01*
X2537713Y-2059686D01*
X2547111Y-2064512D01*
X2561336Y-2064512D01*
X2570734Y-2059686D01*
X2579877Y-2050287D01*
X2492756Y-2026920D02*
G01*
X2436368Y-2026920D01*
X2436368Y-2017521D01*
X2441193Y-2008123D01*
X2445765Y-2003552D01*
X2455163Y-1998726D01*
X2469388Y-1998726D01*
X2478786Y-2003552D01*
X2488184Y-2012950D01*
X2492756Y-2026920D01*
X2492756Y-2036318D01*
X2488184Y-2050287D01*
X2478786Y-2059686D01*
X2469388Y-2064512D01*
X2455163Y-2064512D01*
X2445765Y-2059686D01*
X2436368Y-2050287D01*
X2405379Y-1998726D02*
G01*
X2405379Y-2064512D01*
X2405379Y-2026920D02*
G01*
X2400808Y-2012950D01*
X2391409Y-2003552D01*
X2382011Y-1998726D01*
X2368041Y-1998726D01*
X2337054Y-1998726D02*
G01*
X2337054Y-2064512D01*
X2337054Y-2026920D02*
G01*
X2332227Y-2012950D01*
X2322829Y-2003552D01*
X2313686Y-1998726D01*
X2299461Y-1998726D01*
X2263902Y-1998726D02*
G01*
X2235708Y-2064512D01*
X2207513Y-1998726D02*
G01*
X2235708Y-2064512D01*
X2245106Y-2083307D01*
X2254504Y-2092705D01*
X2263902Y-2097278D01*
X2268474Y-2097278D01*
X2104390Y-1965960D02*
G01*
X2104390Y-2064512D01*
X2104390Y-1965960D02*
G01*
X2062225Y-1965960D01*
X2048002Y-1970531D01*
X2043429Y-1975357D01*
X2038604Y-1984755D01*
X2038604Y-1998726D01*
X2043429Y-2008123D01*
X2048002Y-2012950D01*
X2062225Y-2017521D01*
X2104390Y-2017521D01*
X2007615Y-1965960D02*
G01*
X2003043Y-1970531D01*
X1998218Y-1965960D01*
X2003043Y-1961387D01*
X2007615Y-1965960D01*
X2003043Y-1998726D02*
G01*
X2003043Y-2064512D01*
X1895094Y-1965960D02*
G01*
X1895094Y-2064512D01*
X1895094Y-1965960D02*
G01*
X1852929Y-1965960D01*
X1838960Y-1970531D01*
X1834134Y-1975357D01*
X1829562Y-1984755D01*
X1829562Y-1998726D01*
X1834134Y-2008123D01*
X1838960Y-2012950D01*
X1852929Y-2017521D01*
X1895094Y-2017521D01*
X1798573Y-1965960D02*
G01*
X1793747Y-1970531D01*
X1789176Y-1965960D01*
X1793747Y-1961387D01*
X1798573Y-1965960D01*
X1793747Y-1998726D02*
G01*
X1793747Y-2064512D01*
X1701800Y-2012950D02*
G01*
X1711197Y-2003552D01*
X1720595Y-1998726D01*
X1734820Y-1998726D01*
X1743963Y-2003552D01*
X1753362Y-2012950D01*
X1758187Y-2026920D01*
X1758187Y-2036318D01*
X1753362Y-2050287D01*
X1743963Y-2059686D01*
X1734820Y-2064512D01*
X1720595Y-2064512D01*
X1711197Y-2059686D01*
X1701800Y-2050287D01*
X1647444Y-1998726D02*
G01*
X1656842Y-2003552D01*
X1666239Y-2012950D01*
X1670812Y-2026920D01*
X1670812Y-2036318D01*
X1666239Y-2050287D01*
X1656842Y-2059686D01*
X1647444Y-2064512D01*
X1633473Y-2064512D01*
X1624076Y-2059686D01*
X1614678Y-2050287D01*
X1609852Y-2036318D01*
X1609852Y-2026920D01*
X1614678Y-2012950D01*
X1624076Y-2003552D01*
X1633473Y-1998726D01*
X1647444Y-1998726D01*
X1506728Y-1965960D02*
G01*
X1483360Y-2064512D01*
X1459737Y-1965960D02*
G01*
X1483360Y-2064512D01*
X1459737Y-1965960D02*
G01*
X1436370Y-2064512D01*
X1413002Y-1965960D02*
G01*
X1436370Y-2064512D01*
D11*
X5460491Y-1881378D02*
G01*
X5450077Y-1876044D01*
X5439663Y-1865629D01*
X5434584Y-1855470D01*
X5434584Y-1834642D01*
X5439663Y-1824228D01*
X5450077Y-1813813D01*
X5460491Y-1808479D01*
X5476240Y-1803400D01*
X5502147Y-1803400D01*
X5517641Y-1808479D01*
X5528056Y-1813813D01*
X5538470Y-1824228D01*
X5543550Y-1834642D01*
X5543550Y-1855470D01*
X5538470Y-1865629D01*
X5528056Y-1876044D01*
X5517641Y-1881378D01*
X5434584Y-1915668D02*
G01*
X5543550Y-1915668D01*
X5434584Y-1915668D02*
G01*
X5543550Y-1988312D01*
X5434584Y-1988312D02*
G01*
X5543550Y-1988312D01*
X5434584Y-2058923D02*
G01*
X5543550Y-2058923D01*
X5434584Y-2022602D02*
G01*
X5434584Y-2095500D01*
X5434584Y-2129789D02*
G01*
X5543550Y-2129789D01*
X5434584Y-2129789D02*
G01*
X5434584Y-2176526D01*
X5439663Y-2192020D01*
X5444997Y-2197100D01*
X5455411Y-2202434D01*
X5465825Y-2202434D01*
X5476240Y-2197100D01*
X5481320Y-2192020D01*
X5486400Y-2176526D01*
X5486400Y-2129789D01*
X5486400Y-2166112D02*
G01*
X5543550Y-2202434D01*
X5455411Y-2236723D02*
G01*
X5450077Y-2247137D01*
X5434584Y-2262631D01*
X5543550Y-2262631D01*
X2755900Y-2386561D02*
G01*
X2755900Y-2495664D01*
X2683164Y-2386561D02*
G01*
X2683164Y-2495664D01*
X2755900Y-2438514D02*
G01*
X2683164Y-2438514D01*
X2638483Y-2386561D02*
G01*
X2581333Y-2386561D01*
X2612504Y-2428125D01*
X2596918Y-2428125D01*
X2586527Y-2433320D01*
X2581333Y-2438514D01*
X2576136Y-2454102D01*
X2576136Y-2464493D01*
X2581333Y-2480078D01*
X2591724Y-2490470D01*
X2607309Y-2495664D01*
X2622895Y-2495664D01*
X2638483Y-2490470D01*
X2643677Y-2485275D01*
X2648874Y-2474884D01*
X2541846Y-2448905D02*
G01*
X2448328Y-2448905D01*
X2414038Y-2386561D02*
G01*
X2414038Y-2495664D01*
X2414038Y-2386561D02*
G01*
X2372474Y-2495664D01*
X2330912Y-2386561D02*
G01*
X2372474Y-2495664D01*
X2330912Y-2386561D02*
G01*
X2330912Y-2495664D01*
X2296622Y-2386561D02*
G01*
X2296622Y-2495664D01*
X2296622Y-2386561D02*
G01*
X2249863Y-2386561D01*
X2234275Y-2391755D01*
X2229081Y-2396952D01*
X2223884Y-2407343D01*
X2223884Y-2422928D01*
X2229081Y-2433320D01*
X2234275Y-2438514D01*
X2249863Y-2443711D01*
X2296622Y-2443711D01*
X2189594Y-2386561D02*
G01*
X2189594Y-2464493D01*
X2184400Y-2480078D01*
X2174008Y-2490470D01*
X2158423Y-2495664D01*
X2148032Y-2495664D01*
X2132444Y-2490470D01*
X2122055Y-2480078D01*
X2116858Y-2464493D01*
X2116858Y-2386561D01*
X2020224Y-2402146D02*
G01*
X2025418Y-2391755D01*
X2041004Y-2386561D01*
X2051395Y-2386561D01*
X2066983Y-2391755D01*
X2077374Y-2407343D01*
X2082568Y-2433320D01*
X2082568Y-2459296D01*
X2077374Y-2480078D01*
X2066983Y-2490470D01*
X2051395Y-2495664D01*
X2046201Y-2495664D01*
X2030615Y-2490470D01*
X2020224Y-2480078D01*
X2015027Y-2464493D01*
X2015027Y-2459296D01*
X2020224Y-2443711D01*
X2030615Y-2433320D01*
X2046201Y-2428125D01*
X2051395Y-2428125D01*
X2066983Y-2433320D01*
X2077374Y-2443711D01*
X2082568Y-2459296D01*
X1949564Y-2386561D02*
G01*
X1965152Y-2391755D01*
X1975543Y-2407343D01*
X1980737Y-2433320D01*
X1980737Y-2448905D01*
X1975543Y-2474884D01*
X1965152Y-2490470D01*
X1949564Y-2495664D01*
X1939175Y-2495664D01*
X1923587Y-2490470D01*
X1913196Y-2474884D01*
X1908002Y-2448905D01*
X1908002Y-2433320D01*
X1913196Y-2407343D01*
X1923587Y-2391755D01*
X1939175Y-2386561D01*
X1949564Y-2386561D01*
X1811365Y-2386561D02*
G01*
X1863321Y-2386561D01*
X1868515Y-2433320D01*
X1863321Y-2428125D01*
X1847735Y-2422928D01*
X1832147Y-2422928D01*
X1816562Y-2428125D01*
X1806171Y-2438514D01*
X1800974Y-2454102D01*
X1800974Y-2464493D01*
X1806171Y-2480078D01*
X1816562Y-2490470D01*
X1832147Y-2495664D01*
X1847735Y-2495664D01*
X1863321Y-2490470D01*
X1868515Y-2485275D01*
X1873712Y-2474884D01*
X1735513Y-2386561D02*
G01*
X1751098Y-2391755D01*
X1761489Y-2407343D01*
X1766684Y-2433320D01*
X1766684Y-2448905D01*
X1761489Y-2474884D01*
X1751098Y-2490470D01*
X1735513Y-2495664D01*
X1725122Y-2495664D01*
X1709534Y-2490470D01*
X1699145Y-2474884D01*
X1693948Y-2448905D01*
X1693948Y-2433320D01*
X1699145Y-2407343D01*
X1709534Y-2391755D01*
X1725122Y-2386561D01*
X1735513Y-2386561D01*
M02*
