G04 Layer: BottomSolderMaskLayer*
G04 EasyEDA v6.5.34, 2023-08-13 08:00:09*
G04 3ef975804e8146baa9bbefacfd0b45dc,794d3a8cdbfe417db23b3599569a6dff,10*
G04 Gerber Generator version 0.2*
G04 Scale: 100 percent, Rotated: No, Reflected: No *
G04 Dimensions in millimeters *
G04 leading zeros omitted , absolute positions ,4 integer and 5 decimal *
%FSLAX45Y45*%
%MOMM*%

%AMMACRO1*1,1,$1,$2,$3*1,1,$1,$4,$5*1,1,$1,0-$2,0-$3*1,1,$1,0-$4,0-$5*20,1,$1,$2,$3,$4,$5,0*20,1,$1,$4,$5,0-$2,0-$3,0*20,1,$1,0-$2,0-$3,0-$4,0-$5,0*20,1,$1,0-$4,0-$5,$2,$3,0*4,1,4,$2,$3,$4,$5,0-$2,0-$3,0-$4,0-$5,$2,$3,0*%
%ADD10C,1.7272*%
%ADD11C,1.6256*%
%ADD12MACRO1,0.2032X-0.762X0.762X0.762X0.762*%
%ADD13C,1.8016*%
%ADD14MACRO1,0.1016X-0.7874X0.7874X0.7874X0.7874*%
%ADD15C,1.6764*%
%ADD16R,1.6764X1.6764*%

%LPD*%
D10*
G01*
X5092700Y-1143000D03*
D11*
G01*
X4838700Y-1143000D03*
G01*
X4584700Y-1143000D03*
D10*
G01*
X4330700Y-1143000D03*
D11*
G01*
X4076700Y-1143000D03*
G01*
X3822700Y-1143000D03*
G01*
X3568700Y-1143000D03*
G01*
X3314700Y-1143000D03*
G01*
X3060700Y-1143000D03*
D10*
G01*
X2806700Y-1143000D03*
D11*
G01*
X2552700Y-1143000D03*
D10*
G01*
X2298700Y-1143000D03*
D11*
G01*
X2044700Y-1143000D03*
G01*
X1790700Y-1143000D03*
G01*
X1536700Y-1143000D03*
G01*
X1282700Y-1143000D03*
D10*
G01*
X1028700Y-1143000D03*
D11*
G01*
X774700Y-1143000D03*
G01*
X520700Y-1143000D03*
G01*
X266700Y-1143000D03*
D10*
G01*
X5092700Y-2921000D03*
G01*
X4838700Y-2921000D03*
G01*
X4584700Y-2921000D03*
G01*
X4330700Y-2921000D03*
G01*
X4076700Y-2921000D03*
G01*
X3822700Y-2921000D03*
G01*
X3568700Y-2921000D03*
G01*
X3314700Y-2921000D03*
G01*
X3060700Y-2921000D03*
G01*
X2806700Y-2921000D03*
G01*
X2552700Y-2921000D03*
G01*
X2298700Y-2921000D03*
G01*
X2044700Y-2921000D03*
G01*
X1790700Y-2921000D03*
G01*
X1536700Y-2921000D03*
G01*
X1282700Y-2921000D03*
G01*
X1028700Y-2921000D03*
G01*
X774700Y-2921000D03*
G01*
X520700Y-2921000D03*
G01*
X266700Y-2921000D03*
G01*
X3249701Y-1719605D03*
G01*
X3249701Y-1465605D03*
D12*
G01*
X3249693Y-1973600D03*
D13*
G01*
X5676900Y-1905000D03*
G01*
X5676900Y-2159000D03*
D14*
G01*
X1866900Y-2667000D03*
D15*
G01*
X2120900Y-2667000D03*
G01*
X2374900Y-2667000D03*
G01*
X2628900Y-2667000D03*
D16*
G01*
X5372100Y-3683000D03*
D15*
G01*
X5118100Y-3683000D03*
D16*
G01*
X889000Y-3683000D03*
D15*
G01*
X635000Y-3683000D03*
D16*
G01*
X889000Y-317500D03*
D15*
G01*
X635000Y-317500D03*
D16*
G01*
X5372100Y-317500D03*
D15*
G01*
X5118100Y-317500D03*
M02*
